<?xml version="1.0" encoding="UTF-8"?>
<svg version="1.1" xmlns="http://www.w3.org/2000/svg" width="297" height="306">
<path d="M0 0 C98.01 0 196.02 0 297 0 C297 100.98 297 201.96 297 306 C198.99 306 100.98 306 0 306 C0 205.02 0 104.04 0 0 Z " fill="#0E061B" transform="translate(0,0)"/>
<path d="M0 0 C5.62996017 4.28549207 9.89708249 8.85263603 11.98046875 15.66796875 C12.74696339 17.98336453 12.74696339 17.98336453 14.35546875 19.79296875 C17.80287 21.00494575 21.14249658 21.56849023 24.75 22.13671875 C36.22482285 24.22531056 45.68687781 31.86472872 52.23046875 41.23046875 C59.72171592 52.37150097 62.10927973 64.40819822 59.859375 77.73046875 C56.49695309 91.10416945 49.6041509 101.76875015 38.16796875 109.66796875 C23.0961926 118.21344018 7.70990357 117.36901247 -9.12890625 117.2890625 C-11.79780081 117.28921771 -14.46666875 117.29065722 -17.13555908 117.29347229 C-22.70651059 117.29615935 -28.27724477 117.28282451 -33.84814453 117.25952148 C-40.26375858 117.23286869 -46.67901094 117.23118683 -53.09466147 117.24290985 C-59.30544589 117.25373104 -65.5161011 117.24747004 -71.72687531 117.23335457 C-74.35339226 117.2288548 -76.97991981 117.22849031 -79.60643768 117.23241997 C-83.27918497 117.23534442 -86.95134994 117.21876706 -90.62402344 117.19702148 C-91.69751541 117.20152313 -92.77100739 117.20602478 -93.87702942 117.21066284 C-105.36018541 117.09823362 -114.60928234 114.10973564 -123.26953125 106.48046875 C-124.05328125 105.59359375 -124.83703125 104.70671875 -125.64453125 103.79296875 C-126.13824219 103.25285156 -126.63195312 102.71273437 -127.140625 102.15625 C-134.10665998 93.86996899 -136.41219089 83.51964088 -136.02734375 72.859375 C-134.73226688 62.48554495 -128.63457758 52.55283459 -120.5 46.0703125 C-114.58133833 41.9957812 -107.89491822 38.79296875 -100.64453125 38.79296875 C-100.60585937 37.849375 -100.60585937 37.849375 -100.56640625 36.88671875 C-99.96195029 27.76492887 -96.97220782 21.34125497 -90.74609375 14.625 C-84.19204935 8.91153007 -77.09450515 7.1843182 -68.5625 7.44921875 C-65.67522259 7.78935317 -63.16727564 8.50623617 -60.39453125 9.35546875 C-57.97588915 10.0256493 -57.97588915 10.0256493 -55.64453125 9.79296875 C-53.3783726 7.86116138 -51.78004065 5.70367486 -49.98828125 3.328125 C-36.90324816 -10.82551913 -15.17476925 -9.77071788 0 0 Z " fill="#0E071B" transform="translate(181.64453125,98.20703125)"/>
<path d="M0 0 C1.32 0 2.64 0 4 0 C4 2.31 4 4.62 4 7 C5.65 7 7.3 7 9 7 C9 4.69 9 2.38 9 0 C10.32 0 11.64 0 13 0 C13 2.31 13 4.62 13 7 C14.32 6.67 15.64 6.34 17 6 C17.33 4.02 17.66 2.04 18 0 C19.32 0 20.64 0 22 0 C22.495 2.97 22.495 2.97 23 6 C24.32 6.33 25.64 6.66 27 7 C27 4.69 27 2.38 27 0 C28.32 0 29.64 0 31 0 C31 2.31 31 4.62 31 7 C31.78375 7.144375 32.5675 7.28875 33.375 7.4375 C36 8 36 8 38 9 C38 9.66 38 10.32 38 11 C38.66 11 39.32 11 40 11 C40 12.65 40 14.3 40 16 C42.31 16 44.62 16 47 16 C47 17.32 47 18.64 47 20 C44.69 20 42.38 20 40 20 C40 21.65 40 23.3 40 25 C42.31 25 44.62 25 47 25 C47 26.32 47 27.64 47 29 C44.69 29 42.38 29 40 29 C40 30.65 40 32.3 40 34 C42.31 34 44.62 34 47 34 C47 35.32 47 36.64 47 38 C44.69 38 42.38 38 40 38 C40 39.65 40 41.3 40 43 C41.98 43 43.96 43 46 43 C46.495 44.98 46.495 44.98 47 47 C46.0925 47.020625 45.185 47.04125 44.25 47.0625 C41.02200698 47.62997551 41.02200698 47.62997551 39.88671875 49.5546875 C39.24891848 50.81978927 38.62274545 52.09081407 38.0078125 53.3671875 C37 55 37 55 34.3125 56.0625 C33.549375 56.371875 32.78625 56.68125 32 57 C31.10169161 60.05272465 31.10169161 60.05272465 31 63 C29.68 62.67 28.36 62.34 27 62 C27 60.02 27 58.04 27 56 C25.35 56 23.7 56 22 56 C22 57.98 22 59.96 22 62 C20.68 62 19.36 62 18 62 C18 60.02 18 58.04 18 56 C16.35 56 14.7 56 13 56 C13 57.98 13 59.96 13 62 C11.02 62.495 11.02 62.495 9 63 C9 60.69 9 58.38 9 56 C7.35 56 5.7 56 4 56 C4 58.31 4 60.62 4 63 C2.68 62.67 1.36 62.34 0 62 C-0.061875 61.21625 -0.12375 60.4325 -0.1875 59.625 C-0.455625 58.75875 -0.72375 57.8925 -1 57 C-3.39068734 55.89363605 -3.39068734 55.89363605 -6 55 C-8.85213914 52.04951123 -9 51.28899863 -9 47 C-10.98 47 -12.96 47 -15 47 C-15.33 45.68 -15.66 44.36 -16 43 C-13.69 43 -11.38 43 -9 43 C-9 41.35 -9 39.7 -9 38 C-11.31 38 -13.62 38 -16 38 C-16 36.68 -16 35.36 -16 34 C-13.69 34 -11.38 34 -9 34 C-9 32.35 -9 30.7 -9 29 C-11.31 29 -13.62 29 -16 29 C-16 27.68 -16 26.36 -16 25 C-13.69 25 -11.38 25 -9 25 C-9 23.35 -9 21.7 -9 20 C-11.31 20 -13.62 20 -16 20 C-16 18.68 -16 17.36 -16 16 C-13.69 16 -11.38 16 -9 16 C-8.9175 15.071875 -8.835 14.14375 -8.75 13.1875 C-8 10 -8 10 -6.1875 8.125 C-4 7 -4 7 0 7 C0 4.69 0 2.38 0 0 Z " fill="#081227" transform="translate(129,130)"/>
<path d="M0 0 C5.62996017 4.28549207 9.89708249 8.85263603 11.98046875 15.66796875 C12.74696339 17.98336453 12.74696339 17.98336453 14.35546875 19.79296875 C17.80287 21.00494575 21.14249658 21.56849023 24.75 22.13671875 C36.22482285 24.22531056 45.68687781 31.86472872 52.23046875 41.23046875 C59.72171592 52.37150097 62.10927973 64.40819822 59.859375 77.73046875 C56.49695309 91.10416945 49.6041509 101.76875015 38.16796875 109.66796875 C23.0961926 118.21344018 7.70990357 117.36901247 -9.12890625 117.2890625 C-11.79780081 117.28921771 -14.46666875 117.29065722 -17.13555908 117.29347229 C-22.70651059 117.29615935 -28.27724477 117.28282451 -33.84814453 117.25952148 C-40.26375858 117.23286869 -46.67901094 117.23118683 -53.09466147 117.24290985 C-59.30544589 117.25373104 -65.5161011 117.24747004 -71.72687531 117.23335457 C-74.35339226 117.2288548 -76.97991981 117.22849031 -79.60643768 117.23241997 C-83.27918497 117.23534442 -86.95134994 117.21876706 -90.62402344 117.19702148 C-91.69751541 117.20152313 -92.77100739 117.20602478 -93.87702942 117.21066284 C-105.36018541 117.09823362 -114.60928234 114.10973564 -123.26953125 106.48046875 C-124.05328125 105.59359375 -124.83703125 104.70671875 -125.64453125 103.79296875 C-126.13824219 103.25285156 -126.63195312 102.71273437 -127.140625 102.15625 C-134.10665998 93.86996899 -136.41219089 83.51964088 -136.02734375 72.859375 C-134.73226688 62.48554495 -128.63457758 52.55283459 -120.5 46.0703125 C-114.58133833 41.9957812 -107.89491822 38.79296875 -100.64453125 38.79296875 C-100.60585937 37.849375 -100.60585937 37.849375 -100.56640625 36.88671875 C-99.96195029 27.76492887 -96.97220782 21.34125497 -90.74609375 14.625 C-84.19204935 8.91153007 -77.09450515 7.1843182 -68.5625 7.44921875 C-65.67522259 7.78935317 -63.16727564 8.50623617 -60.39453125 9.35546875 C-57.97588915 10.0256493 -57.97588915 10.0256493 -55.64453125 9.79296875 C-53.3783726 7.86116138 -51.78004065 5.70367486 -49.98828125 3.328125 C-36.90324816 -10.82551913 -15.17476925 -9.77071788 0 0 Z M-52.39453125 13.05859375 C-53.83942783 14.70707341 -53.83942783 14.70707341 -53.64453125 16.79296875 C-54.19238281 16.50421875 -54.74023438 16.21546875 -55.3046875 15.91796875 C-63.60933245 12.02896428 -72.80692698 10.76016306 -81.6171875 13.828125 C-88.56585637 17.59067723 -93.15057057 23.31108671 -95.64453125 30.79296875 C-95.86778939 32.85190496 -96.05158884 34.91530528 -96.20703125 36.98046875 C-96.29082031 38.06714844 -96.37460938 39.15382812 -96.4609375 40.2734375 C-96.55181641 41.52060547 -96.55181641 41.52060547 -96.64453125 42.79296875 C-97.40636719 42.87933594 -98.16820312 42.96570313 -98.953125 43.0546875 C-109.73205002 44.52148254 -117.76146583 48.18057595 -124.64453125 56.79296875 C-131.08476023 66.6535266 -132.34785314 77.18428784 -130.06640625 88.71484375 C-126.99286415 97.48840937 -120.51089135 104.66249607 -112.26953125 108.85546875 C-107.94208846 110.78564561 -104.37522092 111.91764194 -99.61903381 111.94013977 C-98.06120682 111.95087273 -98.06120682 111.95087273 -96.47190857 111.96182251 C-95.33270462 111.96451141 -94.19350067 111.96720032 -93.01977539 111.9699707 C-91.8194165 111.9765419 -90.61905762 111.9831131 -89.38232422 111.98988342 C-85.39810945 112.00963941 -81.41393501 112.02129076 -77.4296875 112.03125 C-76.05459511 112.03529925 -74.67950292 112.03941623 -73.30441093 112.04360008 C-66.83736766 112.06265614 -60.37033577 112.07688128 -53.90326983 112.08521205 C-46.46056836 112.09495955 -39.01816628 112.12121163 -31.57557017 112.16171294 C-25.81061156 112.19199707 -20.04573811 112.20669285 -14.28070158 112.20999306 C-10.84402801 112.21233135 -7.40767406 112.22112905 -3.9710865 112.24645424 C-0.12509822 112.27091607 3.72011914 112.26986665 7.56616211 112.26293945 C8.68714798 112.27574951 9.80813385 112.28855957 10.96308899 112.30175781 C23.94938276 112.21700179 34.6175782 108.00366236 44.1328125 99.13671875 C53.50118931 89.02936057 56.0472914 76.93912141 55.72265625 63.63671875 C55.07954536 51.94213499 49.78312331 43.62895578 41.35546875 35.79296875 C38.64909238 33.53147617 35.98267486 31.41712955 32.91796875 29.66796875 C32.38300781 29.35601562 31.84804687 29.0440625 31.296875 28.72265625 C26.41033783 26.38262436 21.86722954 25.49777043 16.48046875 25.16796875 C15.32804688 25.09320313 14.175625 25.0184375 12.98828125 24.94140625 C11.68503906 24.86792969 11.68503906 24.86792969 10.35546875 24.79296875 C10.2265625 24.04917969 10.09765625 23.30539063 9.96484375 22.5390625 C8.09329752 14.10510736 2.98454419 7.48079046 -3.95703125 2.54296875 C-21.55633977 -8.49633478 -39.90064382 -1.3316873 -52.39453125 13.05859375 Z " fill="#3FD4E2" transform="translate(181.64453125,98.20703125)"/>
<path d="M0 0 C1.32 0 2.64 0 4 0 C4 2.31 4 4.62 4 7 C5.65 7 7.3 7 9 7 C9 4.69 9 2.38 9 0 C10.32 0 11.64 0 13 0 C13 2.31 13 4.62 13 7 C14.32 6.67 15.64 6.34 17 6 C17.33 4.02 17.66 2.04 18 0 C19.32 0 20.64 0 22 0 C22.495 2.97 22.495 2.97 23 6 C24.32 6.33 25.64 6.66 27 7 C27 4.69 27 2.38 27 0 C28.32 0 29.64 0 31 0 C31 2.31 31 4.62 31 7 C31.78375 7.144375 32.5675 7.28875 33.375 7.4375 C36 8 36 8 38 9 C38 9.66 38 10.32 38 11 C38.66 11 39.32 11 40 11 C40 12.65 40 14.3 40 16 C42.31 16 44.62 16 47 16 C47 17.32 47 18.64 47 20 C44.69 20 42.38 20 40 20 C40 21.65 40 23.3 40 25 C42.31 25 44.62 25 47 25 C47 26.32 47 27.64 47 29 C44.69 29 42.38 29 40 29 C40 30.65 40 32.3 40 34 C42.31 34 44.62 34 47 34 C47 35.32 47 36.64 47 38 C44.69 38 42.38 38 40 38 C40 39.65 40 41.3 40 43 C41.98 43 43.96 43 46 43 C46.495 44.98 46.495 44.98 47 47 C46.0925 47.020625 45.185 47.04125 44.25 47.0625 C41.02200698 47.62997551 41.02200698 47.62997551 39.88671875 49.5546875 C39.24891848 50.81978927 38.62274545 52.09081407 38.0078125 53.3671875 C37 55 37 55 34.3125 56.0625 C33.549375 56.371875 32.78625 56.68125 32 57 C31.10169161 60.05272465 31.10169161 60.05272465 31 63 C29.68 62.67 28.36 62.34 27 62 C27 60.02 27 58.04 27 56 C25.35 56 23.7 56 22 56 C22 57.98 22 59.96 22 62 C20.68 62 19.36 62 18 62 C18 60.02 18 58.04 18 56 C16.35 56 14.7 56 13 56 C13 57.98 13 59.96 13 62 C11.02 62.495 11.02 62.495 9 63 C9 60.69 9 58.38 9 56 C7.35 56 5.7 56 4 56 C4 58.31 4 60.62 4 63 C2.68 62.67 1.36 62.34 0 62 C-0.061875 61.21625 -0.12375 60.4325 -0.1875 59.625 C-0.455625 58.75875 -0.72375 57.8925 -1 57 C-3.39068734 55.89363605 -3.39068734 55.89363605 -6 55 C-8.85213914 52.04951123 -9 51.28899863 -9 47 C-10.98 47 -12.96 47 -15 47 C-15.33 45.68 -15.66 44.36 -16 43 C-13.69 43 -11.38 43 -9 43 C-9 41.35 -9 39.7 -9 38 C-11.31 38 -13.62 38 -16 38 C-16 36.68 -16 35.36 -16 34 C-13.69 34 -11.38 34 -9 34 C-9 32.35 -9 30.7 -9 29 C-11.31 29 -13.62 29 -16 29 C-16 27.68 -16 26.36 -16 25 C-13.69 25 -11.38 25 -9 25 C-9 23.35 -9 21.7 -9 20 C-11.31 20 -13.62 20 -16 20 C-16 18.68 -16 17.36 -16 16 C-13.69 16 -11.38 16 -9 16 C-8.9175 15.071875 -8.835 14.14375 -8.75 13.1875 C-8 10 -8 10 -6.1875 8.125 C-4 7 -4 7 0 7 C0 4.69 0 2.38 0 0 Z M-3 11 C-5.46663039 14.69994558 -5.30605136 17.56081297 -5.30078125 21.84375 C-5.30506638 22.60925171 -5.3093515 23.37475342 -5.31376648 24.16345215 C-5.31950517 25.78067028 -5.32001342 27.39791423 -5.31567383 29.01513672 C-5.31251149 31.49100653 -5.33598531 33.96568397 -5.36132812 36.44140625 C-5.36360092 38.01301932 -5.36430471 39.58463562 -5.36328125 41.15625 C-5.372491 41.89693726 -5.38170074 42.63762451 -5.39118958 43.40075684 C-5.36598783 46.19580768 -5.28188444 48.46342641 -3.9675293 50.96533203 C-0.8271339 52.61677709 2.38039355 52.42683262 5.84375 52.3984375 C6.99200256 52.40274277 6.99200256 52.40274277 8.16345215 52.40713501 C9.78068787 52.409175 11.3979483 52.40364963 13.01513672 52.39111328 C15.49112091 52.37505758 17.96547285 52.39096297 20.44140625 52.41015625 C22.01302444 52.40817381 23.58464161 52.4043301 25.15625 52.3984375 C25.89693726 52.40451019 26.63762451 52.41058289 27.40075684 52.4168396 C30.19426063 52.37859976 32.46640556 52.28091593 34.96533203 50.96533203 C36.61782853 47.82644652 36.42682465 44.6186345 36.3984375 41.15625 C36.40274277 40.00799744 36.40274277 40.00799744 36.40713501 38.83654785 C36.409175 37.21931213 36.40364963 35.6020517 36.39111328 33.98486328 C36.37505758 31.50887909 36.39096297 29.03452715 36.41015625 26.55859375 C36.40817381 24.98697556 36.4043301 23.41535839 36.3984375 21.84375 C36.40451019 21.10306274 36.41058289 20.36237549 36.4168396 19.59924316 C36.37870799 16.81364548 36.27680078 14.53396747 34.98120117 12.03466797 C31.76648694 10.35580674 28.44349813 10.57347788 24.90234375 10.6015625 C24.11227432 10.59869232 23.3222049 10.59582214 22.50819397 10.59286499 C20.83968386 10.59082501 19.1711498 10.59635033 17.50268555 10.60888672 C14.94330675 10.62496352 12.38550198 10.60902581 9.82617188 10.58984375 C8.20572567 10.59182578 6.58528045 10.59566861 4.96484375 10.6015625 C3.81326027 10.59245346 3.81326027 10.59245346 2.63841248 10.5831604 C0.25677164 10.57982712 0.25677164 10.57982712 -3 11 Z " fill="#43E3EF" transform="translate(129,130)"/>
<path d="M0 0 C5.61 0 11.22 0 17 0 C18.66631613 4.99894838 18.18593354 10.21722155 18.18530273 15.45166016 C18.1874922 17.4927242 18.20567052 19.53325007 18.22460938 21.57421875 C18.22654297 22.85941406 18.22847656 24.14460938 18.23046875 25.46875 C18.23457764 26.64888672 18.23868652 27.82902344 18.24291992 29.04492188 C18 32 18 32 16 35 C15.01 35 14.02 35 13 35 C12.34 35.66 11.68 36.32 11 37 C8.01904297 37.31884766 8.01904297 37.31884766 4.2421875 37.4140625 C3.57913605 37.43342865 2.91608459 37.4527948 2.23294067 37.4727478 C0.11375823 37.53255954 -2.0054785 37.57893388 -4.125 37.625 C-5.56122169 37.66317845 -6.99742045 37.70223011 -8.43359375 37.7421875 C-11.95551936 37.83826125 -15.47761608 37.92228642 -19 38 C-20.51950081 32.97618332 -21.22519784 28.82288685 -21.125 23.5625 C-21.10695313 22.32628906 -21.08890625 21.09007812 -21.0703125 19.81640625 C-21.04710938 18.88699219 -21.02390625 17.95757812 -21 17 C-20.34 17.66 -19.68 18.32 -19 19 C-18.67 18.34 -18.34 17.68 -18 17 C-16.35 17.33 -14.7 17.66 -13 18 C-13.350625 18.70125 -13.70125 19.4025 -14.0625 20.125 C-15.1639193 23.50268586 -14.79516141 25.58080593 -14 29 C-12.02 29 -10.04 29 -8 29 C-7.34 27.68 -6.68 26.36 -6 25 C-5.34 26.98 -4.68 28.96 -4 31 C-3.34 30.67 -2.68 30.34 -2 30 C1.53018797 29.84651357 4.61527952 29.95854754 8 31 C8 30.34 8 29.68 8 29 C8.66 29 9.32 29 10 29 C10.33 22.07 10.66 15.14 11 8 C8.69 8.33 6.38 8.66 4 9 C2.90341064 12.28976808 3.20046862 13.71303767 4 17 C2.68 17.33 1.36 17.66 0 18 C-0.12117188 17.38511719 -0.24234375 16.77023438 -0.3671875 16.13671875 C-0.53476563 15.32847656 -0.70234375 14.52023438 -0.875 13.6875 C-1.03742188 12.88699219 -1.19984375 12.08648437 -1.3671875 11.26171875 C-1.94478999 8.74698882 -1.94478999 8.74698882 -4 6 C-5.32 6.33 -6.64 6.66 -8 7 C-7.34 6.67 -6.68 6.34 -6 6 C-6.33 5.01 -6.66 4.02 -7 3 C-4.69 3 -2.38 3 0 3 C0 2.01 0 1.02 0 0 Z " fill="#0B061A" transform="translate(146,143)"/>
<path d="M0 0 C3.80804952 4.01439703 6.50183954 7.31888185 8.12890625 12.6328125 C8.86709263 14.91811974 8.86709263 14.91811974 10.44140625 16.6953125 C13.88846556 17.90425507 17.22969971 18.47103333 20.8359375 19.0390625 C33.02560714 21.25776727 42.75648589 29.73113178 49.6796875 39.62573242 C53.06124659 44.94784531 53.43287393 49.58738197 52.44140625 55.6953125 C51.78140625 55.6953125 51.12140625 55.6953125 50.44140625 55.6953125 C50.18488281 54.87289062 49.92835938 54.05046875 49.6640625 53.203125 C45.25793149 40.35561841 37.64365676 31.87036711 25.5546875 25.73828125 C22.36561462 24.38108671 19.71432496 23.71222484 16.2265625 23.49609375 C12.67228671 23.25221206 9.77782659 22.96484494 6.44140625 21.6953125 C4.43771008 18.7715969 3.47190024 16.0406631 2.39453125 12.671875 C0.06142007 5.38568352 -5.98753645 1.14946081 -12.55859375 -2.3046875 C-20.00628274 -5.18550273 -27.63597623 -5.90371733 -35.55859375 -6.3046875 C-35.22859375 -6.9646875 -34.89859375 -7.6246875 -34.55859375 -8.3046875 C-21.38210104 -10.76458468 -10.1734881 -9.16390531 0 0 Z " fill="#40DEEB" transform="translate(185.55859375,101.3046875)"/>
<path d="M0 0 C0 0.66 0 1.32 0 2 C0.99 2.33 1.98 2.66 3 3 C-4.49902376 5.73969917 -11.2018519 6.42823598 -19.14746094 6.37231445 C-20.90546776 6.37779045 -20.90546776 6.37779045 -22.69898987 6.38337708 C-26.54426903 6.3914344 -30.3891205 6.37791536 -34.234375 6.36328125 C-36.91856473 6.36276221 -39.60273861 6.36322949 -42.28692627 6.36479187 C-47.89852947 6.3656716 -53.51001111 6.35465799 -59.12158203 6.33618164 C-65.59848171 6.31497758 -72.07520404 6.31151482 -78.55213141 6.3177436 C-84.8034776 6.3234462 -91.05476171 6.31778371 -97.30609894 6.30657005 C-99.95825195 6.30272298 -102.61041029 6.30156779 -105.26256561 6.3031559 C-108.96518614 6.30352675 -112.66753715 6.29090173 -116.37011719 6.2746582 C-117.46427444 6.27713562 -118.5584317 6.27961304 -119.68574524 6.28216553 C-124.84769623 6.2460245 -129.17621298 6.08566003 -134 4 C-132.74845791 2.45010567 -132.74845791 2.45010567 -131 1 C-129.13887882 1.136549 -129.13887882 1.136549 -127.02467346 1.79830933 C-121.50427687 3.24544898 -116.2873689 3.26694018 -110.60522461 3.22705078 C-108.95002304 3.22748886 -108.95002304 3.22748886 -107.26138306 3.22793579 C-103.64162117 3.2265509 -100.02206934 3.2110293 -96.40234375 3.1953125 C-93.8817201 3.19157938 -91.36109499 3.18873382 -88.84046936 3.18673706 C-82.90147783 3.17990079 -76.96255283 3.16416418 -71.02359539 3.14403808 C-64.2568996 3.12160935 -57.49020006 3.11066819 -50.72347629 3.10064721 C-36.81560978 3.07979573 -22.90780898 3.04466353 -9 3 C-9 2.34 -9 1.68 -9 1 C-5.92677456 0.08941469 -3.19902639 -0.08886184 0 0 Z " fill="#45CDDB" transform="translate(207,209)"/>
<path d="M0 0 C1.98 0.66 3.96 1.32 6 2 C6.33 3.65 6.66 5.3 7 7 C7.99 7.33 8.98 7.66 10 8 C10 5.69 10 3.38 10 1 C11.65 1 13.3 1 15 1 C15 3.31 15 5.62 15 8 C15.99 7.67 16.98 7.34 18 7 C18.33 5.02 18.66 3.04 19 1 C20.65 1 22.3 1 24 1 C24.33 2.98 24.66 4.96 25 7 C25.66 7 26.32 7 27 7 C27.33 5.02 27.66 3.04 28 1 C29.65 1 31.3 1 33 1 C33.061875 1.94875 33.12375 2.8975 33.1875 3.875 C33.455625 4.90625 33.72375 5.9375 34 7 C36.46255685 8.45291273 36.46255685 8.45291273 39 9 C39 9.66 39 10.32 39 11 C37.68 10.67 36.36 10.34 35 10 C35.66 10.99 36.32 11.98 37 13 C35.68 13 34.36 13 33 13 C33 12.01 33 11.02 33 10 C31.02 10 29.04 10 27 10 C27 10.99 27 11.98 27 13 C23.67438135 14.76062164 22.40826005 15.10784228 18.6875 14.125 C17.800625 13.75375 16.91375 13.3825 16 13 C16.66 12.67 17.32 12.34 18 12 C18 11.34 18 10.68 18 10 C17.15695313 9.93941406 16.31390625 9.87882813 15.4453125 9.81640625 C13.80175781 9.69072266 13.80175781 9.69072266 12.125 9.5625 C11.03445312 9.48128906 9.94390625 9.40007812 8.8203125 9.31640625 C6 9 6 9 4 8 C4 6.68 4 5.36 4 4 C2.68 3.34 1.36 2.68 0 2 C0 1.34 0 0.68 0 0 Z " fill="#09182A" transform="translate(123,185)"/>
<path d="M0 0 C1.670625 0.061875 1.670625 0.061875 3.375 0.125 C3.40395976 3.24998063 3.42178483 6.3749269 3.4375 9.5 C3.44587891 10.38945312 3.45425781 11.27890625 3.46289062 12.1953125 C3.46611328 13.04609375 3.46933594 13.896875 3.47265625 14.7734375 C3.47789307 15.55895996 3.48312988 16.34448242 3.48852539 17.15380859 C3.375 19.125 3.375 19.125 2.375 21.125 C1.715 21.125 1.055 21.125 0.375 21.125 C0.375 21.785 0.375 22.445 0.375 23.125 C-0.615 23.125 -1.605 23.125 -2.625 23.125 C-2.955 23.785 -3.285 24.445 -3.625 25.125 C-3.625 24.135 -3.625 23.145 -3.625 22.125 C-5.935 22.455 -8.245 22.785 -10.625 23.125 C-10.625 22.465 -10.625 21.805 -10.625 21.125 C-8.975 21.125 -7.325 21.125 -5.625 21.125 C-4.38798628 17.41395884 -5.20373021 16.63637242 -6.625 13.125 C-6.75 10.3125 -6.75 10.3125 -6.625 8.125 C-5.965 8.125 -5.305 8.125 -4.625 8.125 C-4.83125 7.17625 -5.0375 6.2275 -5.25 5.25 C-5.37375 4.21875 -5.4975 3.1875 -5.625 2.125 C-3.625 0.125 -3.625 0.125 0 0 Z " fill="#050C1F" transform="translate(153.625,150.875)"/>
<path d="M0 0 C1.4540625 0.0309375 1.4540625 0.0309375 2.9375 0.0625 C5.69831837 6.4243858 6.56926001 12.15482563 6.9375 19.0625 C5.6175 19.0625 4.2975 19.0625 2.9375 19.0625 C2.6075 17.4125 2.2775 15.7625 1.9375 14.0625 C0.2875 14.0625 -1.3625 14.0625 -3.0625 14.0625 C-3.0625 15.7125 -3.0625 17.3625 -3.0625 19.0625 C-4.3825 19.0625 -5.7025 19.0625 -7.0625 19.0625 C-7.48696917 12.69546252 -6.07722942 7.09624925 -4.0625 1.0625 C-3.0625 0.0625 -3.0625 0.0625 0 0 Z " fill="#3DE5F0" transform="translate(140.0625,151.9375)"/>
<path d="M0 0 C11.22 0 22.44 0 34 0 C33.67 2.64 33.34 5.28 33 8 C32.79375 7.360625 32.5875 6.72125 32.375 6.0625 C31.10461791 3.65074923 31.10461791 3.65074923 27.875 3.25 C26.92625 3.1675 25.9775 3.085 25 3 C25 4.98 25 6.96 25 9 C23.68 9 22.36 9 21 9 C21 7.02 21 5.04 21 3 C19.35 3 17.7 3 16 3 C16 4.98 16 6.96 16 9 C14.68 9.33 13.36 9.66 12 10 C12 7.69 12 5.38 12 3 C10.35 3 8.7 3 7 3 C7 5.31 7 7.62 7 10 C5.68 9.67 4.36 9.34 3 9 C2.67 6.69 2.34 4.38 2 2 C1.34 2 0.68 2 0 2 C0 1.34 0 0.68 0 0 Z " fill="#41E6F2" transform="translate(126,183)"/>
<path d="M0 0 C0.33 0.99 0.66 1.98 1 3 C0.01 3.66 -0.98 4.32 -2 5 C-1.67 5.66 -1.34 6.32 -1 7 C-2.27875 7.12375 -3.5575 7.2475 -4.875 7.375 C-7.30197939 7.60986897 -9.66331789 7.92302776 -12.04149437 8.4667263 C-18.85227603 10.01522203 -25.3674029 10.30522559 -32.33447266 10.31884766 C-33.52586853 10.32889328 -34.7172644 10.3389389 -35.94476318 10.34928894 C-39.17961342 10.37470471 -42.41436932 10.39166624 -45.64928865 10.40471697 C-49.04190724 10.42045363 -52.43443944 10.44720965 -55.82699585 10.4727478 C-62.23692013 10.51935055 -68.646861 10.55618357 -75.056867 10.58942068 C-82.36052026 10.62777365 -89.66408637 10.67714883 -96.96766591 10.72740483 C-111.97837935 10.83044909 -126.98914581 10.91979802 -142 11 C-142 10.34 -142 9.68 -142 9 C-141.39114708 8.99945523 -140.78229416 8.99891047 -140.15499115 8.99834919 C-125.26973557 8.98331472 -110.38474706 8.94060075 -95.49967194 8.86790943 C-88.3010171 8.833407 -81.10255082 8.80792345 -73.90380859 8.80444336 C-67.62185122 8.80138274 -61.34023091 8.78061424 -55.05840349 8.73947543 C-51.73881247 8.71833063 -48.42010455 8.7080908 -45.10038757 8.71384621 C-21.51389724 8.83637679 -21.51389724 8.83637679 0 0 Z " fill="#001728" transform="translate(221,206)"/>
<path d="M0 0 C0.33 0 0.66 0 1 0 C1 11.55 1 23.1 1 35 C1.66 34.67 2.32 34.34 3 34 C3 32.68 3 31.36 3 30 C5.31 30 7.62 30 10 30 C10.495 31.98 10.495 31.98 11 34 C10.0925 34.020625 9.185 34.04125 8.25 34.0625 C5.02200698 34.62997551 5.02200698 34.62997551 3.88671875 36.5546875 C3.24891848 37.81978927 2.62274545 39.09081407 2.0078125 40.3671875 C1 42 1 42 -1.6875 43.0625 C-2.450625 43.371875 -3.21375 43.68125 -4 44 C-4.89830839 47.05272465 -4.89830839 47.05272465 -5 50 C-6.32 49.67 -7.64 49.34 -9 49 C-9 47.02 -9 45.04 -9 43 C-8.01 43 -7.02 43 -6 43 C-5.67 42.01 -5.34 41.02 -5 40 C-15.89 40 -26.78 40 -38 40 C-38 39.67 -38 39.34 -38 39 C-25.79 38.67 -13.58 38.34 -1 38 C-0.67 25.46 -0.34 12.92 0 0 Z " fill="#4EDCE9" transform="translate(165,143)"/>
<path d="M0 0 C0.98484375 0.00902344 1.9696875 0.01804687 2.984375 0.02734375 C4.10585937 0.04474609 4.10585937 0.04474609 5.25 0.0625 C5.25 0.7225 5.25 1.3825 5.25 2.0625 C-0.69 2.5575 -0.69 2.5575 -6.75 3.0625 C-1.305 3.5575 -1.305 3.5575 4.25 4.0625 C4.25 4.3925 4.25 4.7225 4.25 5.0625 C3.28320312 5.13726562 2.31640625 5.21203125 1.3203125 5.2890625 C-10.38890564 6.4715776 -17.93159741 10.17235031 -26.75 18.0625 C-26.75 17.0725 -26.75 16.0825 -26.75 15.0625 C-27.41 15.0625 -28.07 15.0625 -28.75 15.0625 C-29.08 16.0525 -29.41 17.0425 -29.75 18.0625 C-30.41 17.7325 -31.07 17.4025 -31.75 17.0625 C-24.23079352 6.76445635 -12.98962505 -0.15463839 0 0 Z " fill="#3FCDDA" transform="translate(157.75,90.9375)"/>
<path d="M0 0 C0.33 0 0.66 0 1 0 C1 8.58 1 17.16 1 26 C-2.69418201 27.231394 -5.2056261 26.64432764 -9 26 C-9 24.68 -9 23.36 -9 22 C-6.69 22 -4.38 22 -2 22 C-2 20.35 -2 18.7 -2 17 C-4.31 17 -6.62 17 -9 17 C-9 15.68 -9 14.36 -9 13 C-6.69 13 -4.38 13 -2 13 C-2 11.35 -2 9.7 -2 8 C-3.65 8 -5.3 8 -7 8 C-7.33 7.01 -7.66 6.02 -8 5 C-5.69 5 -3.38 5 -1 5 C-0.67 3.35 -0.34 1.7 0 0 Z " fill="#37EAF6" transform="translate(122,142)"/>
<path d="M0 0 C2.508221 2.508221 2.25629767 4.06153943 2.30354309 7.48594666 C2.30263168 8.2317952 2.30172028 8.97764374 2.30078125 9.74609375 C2.30506638 10.51301041 2.3093515 11.27992706 2.31376648 12.07008362 C2.31951323 13.69327812 2.32000749 15.31649838 2.31567383 16.93969727 C2.3125166 19.42443794 2.33595754 21.90798502 2.36132812 24.39257812 C2.36360136 25.9687485 2.3643045 27.54492207 2.36328125 29.12109375 C2.372491 29.86491806 2.38170074 30.60874237 2.39118958 31.37510681 C2.36604084 34.17731006 2.28039008 36.46043928 0.97412109 38.97412109 C-2.20445806 40.62591303 -5.45607931 40.36507565 -8.94921875 40.29296875 C-9.72183548 40.28872391 -10.49445221 40.28447906 -11.29048157 40.28010559 C-13.75650992 40.26332183 -16.22171896 40.22567147 -18.6875 40.1875 C-20.36001423 40.17245271 -22.03254128 40.15876438 -23.70507812 40.14648438 C-27.80370078 40.11341946 -31.90171151 40.06164028 -36 40 C-36 39.67 -36 39.34 -36 39 C-29.50241453 38.07950872 -23.05454003 37.69985364 -16.5 37.4375 C-15.48679688 37.39431641 -14.47359375 37.35113281 -13.4296875 37.30664062 C-10.9532321 37.20150808 -8.47669251 37.09936163 -6 37 C-5.67 36.01 -5.34 35.02 -5 34 C-3.68 34.33 -2.36 34.66 -1 35 C0.50606515 31.98786971 0.12160331 28.88717378 0.09765625 25.5859375 C0.0962413 24.85629791 0.09482635 24.12665833 0.09336853 23.37490845 C0.08776531 21.04156415 0.07521235 18.70831536 0.0625 16.375 C0.05748541 14.79427222 0.05292243 13.21354293 0.04882812 11.6328125 C0.03779484 7.75517146 0.02052811 3.87760193 0 0 Z " fill="#031D33" transform="translate(163,142)"/>
<path d="M0 0 C0.4846875 0.38671875 0.969375 0.7734375 1.46875 1.171875 C8.93225587 6.97044494 15.66220722 10.35724016 25 12 C25 12.33 25 12.66 25 13 C23.046875 12.93489583 21.09375 12.86979167 19.140625 12.8046875 C16.93029266 12.85644433 16.93029266 12.85644433 15.01171875 14.140625 C13 15 13 15 10.81640625 14.2421875 C1.52429735 8.60572629 1.52429735 8.60572629 -1 6 C-1.375 3.3125 -1.375 3.3125 -1 1 C-0.67 0.67 -0.34 0.34 0 0 Z " fill="#40D9E6" transform="translate(58,198)"/>
<path d="M0 0 C1.98 0.66 3.96 1.32 6 2 C6.33 3.65 6.66 5.3 7 7 C7.99 7.33 8.98 7.66 10 8 C10 5.69 10 3.38 10 1 C11.65 1 13.3 1 15 1 C15 3.31 15 5.62 15 8 C15.99 7.67 16.98 7.34 18 7 C18.33 5.02 18.66 3.04 19 1 C20.65 1 22.3 1 24 1 C24.33 3.31 24.66 5.62 25 8 C24.34 8 23.68 8 23 8 C23 6.02 23 4.04 23 2 C22.01 2 21.02 2 20 2 C20 4.31 20 6.62 20 9 C20.66 9.33 21.32 9.66 22 10 C21.01 10.99 20.02 11.98 19 13 C18.01 12.67 17.02 12.34 16 12 C16.66 12 17.32 12 18 12 C18 11.34 18 10.68 18 10 C17.15695313 9.93941406 16.31390625 9.87882813 15.4453125 9.81640625 C13.80175781 9.69072266 13.80175781 9.69072266 12.125 9.5625 C11.03445312 9.48128906 9.94390625 9.40007812 8.8203125 9.31640625 C6 9 6 9 4 8 C4 6.68 4 5.36 4 4 C2.68 3.34 1.36 2.68 0 2 C0 1.34 0 0.68 0 0 Z " fill="#082F43" transform="translate(123,185)"/>
<path d="M0 0 C1.32 0 2.64 0 4 0 C4 5.94 4 11.88 4 18 C2.35 18.33 0.7 18.66 -1 19 C-1.02683987 16.02077407 -1.04676037 13.04178705 -1.0625 10.0625 C-1.07087891 9.21236328 -1.07925781 8.36222656 -1.08789062 7.48632812 C-1.09111328 6.67744141 -1.09433594 5.86855469 -1.09765625 5.03515625 C-1.10289307 4.2862915 -1.10812988 3.53742676 -1.11352539 2.76586914 C-1 1 -1 1 0 0 Z " fill="#3FCDDA" transform="translate(152,152)"/>
<path d="M0 0 C-0.33 0.99 -0.66 1.98 -1 3 C-8.26 2.67 -15.52 2.34 -23 2 C-22.67 1.01 -22.34 0.02 -22 -1 C-14.93838049 -3.35387317 -6.91485305 -2.51449202 0 0 Z " fill="#3FDFEC" transform="translate(123,108)"/>
<path d="M0 0 C1.98 0 3.96 0 6 0 C6 0.33 6 0.66 6 1 C4.35 1 2.7 1 1 1 C1 1.99 1 2.98 1 4 C5.455 3.505 5.455 3.505 10 3 C10 3.66 10 4.32 10 5 C9.34 5 8.68 5 8 5 C8 6.65 8 8.3 8 10 C6.02 10 4.04 10 2 10 C1.938125 10.928125 1.87625 11.85625 1.8125 12.8125 C1 16 1 16 -1.375 17.875 C-4 19 -4 19 -7 19 C-7 20.98 -7 22.96 -7 25 C-7.66 25 -8.32 25 -9 25 C-9 23.02 -9 21.04 -9 19 C-8.0925 18.649375 -7.185 18.29875 -6.25 17.9375 C-2.08142471 15.45238781 -1.10847374 13.29804263 1 9 C2.98 9 4.96 9 7 9 C6.67 8.01 6.34 7.02 6 6 C3.03 5.505 3.03 5.505 0 5 C0 3.35 0 1.7 0 0 Z " fill="#0B4254" transform="translate(169,168)"/>
<path d="M0 0 C1.46972992 2.93945984 1 5.74955436 1 9 C1.33 9.66 1.66 10.32 2 11 C2.2687338 14.97359569 2.23157705 18.95583892 2.25 22.9375 C2.270625 24.04802734 2.29125 25.15855469 2.3125 26.30273438 C2.31765625 27.36685547 2.3228125 28.43097656 2.328125 29.52734375 C2.3374707 30.50437256 2.34681641 31.48140137 2.35644531 32.48803711 C1.94723194 35.37187024 1.25526145 36.23486715 -1 38 C-0.835 36.783125 -0.67 35.56625 -0.5 34.3125 C0.57004471 24.25722695 0.25647734 15.41892374 -2.63671875 5.6796875 C-3 3 -3 3 -1.58203125 1.1328125 C-1.05996094 0.75898438 -0.53789062 0.38515625 0 0 Z " fill="#042135" transform="translate(241,144)"/>
<path d="M0 0 C1.99097846 2.98646769 2.94124926 5.59687262 4 9 C3.34 9 2.68 9 2 9 C2 9.66 2 10.32 2 11 C0.35 11 -1.3 11 -3 11 C-3.33 11.66 -3.66 12.32 -4 13 C-4.99 11.68 -5.98 10.36 -7 9 C-7.33 9.66 -7.66 10.32 -8 11 C-9.98 11 -11.96 11 -14 11 C-13.67 9.68 -13.34 8.36 -13 7 C-13 7.99 -13 8.98 -13 10 C-11.68 10 -10.36 10 -9 10 C-9 8.35 -9 6.7 -9 5 C-7.35 5 -5.7 5 -4 5 C-3.67 6.65 -3.34 8.3 -3 10 C-1.68 10 -0.36 10 1 10 C0.67 6.7 0.34 3.4 0 0 Z " fill="#062839" transform="translate(146,161)"/>
<path d="M0 0 C0.99 0 1.98 0 3 0 C2.79503906 0.58265625 2.59007812 1.1653125 2.37890625 1.765625 C0.16422429 8.50503996 -0.64768878 14.92947835 -1 22 C-1.33 22 -1.66 22 -2 22 C-2.33 18.37 -2.66 14.74 -3 11 C-4.73956658 12.73956658 -4.37190386 15.1936622 -4.5625 17.5625 C-4.64628906 18.57441406 -4.73007812 19.58632812 -4.81640625 20.62890625 C-4.87699219 21.41136719 -4.93757813 22.19382813 -5 23 C-5.33 23 -5.66 23 -6 23 C-6.05451714 20.95863605 -6.09302485 18.91684144 -6.125 16.875 C-6.14820313 15.73804688 -6.17140625 14.60109375 -6.1953125 13.4296875 C-5.99672109 9.94242233 -5.2524801 7.2446138 -4 4 C-3.67 5.32 -3.34 6.64 -3 8 C-2.34 8 -1.68 8 -1 8 C-0.67 5.36 -0.34 2.72 0 0 Z " fill="#40C0CD" transform="translate(52,158)"/>
<path d="M0 0 C0.33 0.66 0.66 1.32 1 2 C3.02463255 2.65213292 3.02463255 2.65213292 5 3 C2.78071806 5.90802461 1.07030857 7.95312762 -2 10 C-3.21284876 13.05429073 -3.21284876 13.05429073 -4 16 C-4.66 16 -5.32 16 -6 16 C-7.02388876 9.51537118 -3.42721347 5.16122028 0 0 Z " fill="#42CEDD" transform="translate(55,150)"/>
<path d="M0 0 C0 0.66 0 1.32 0 2 C-5.94 2.495 -5.94 2.495 -12 3 C-8.37 3.33 -4.74 3.66 -1 4 C-1 4.33 -1 4.66 -1 5 C-5.95 5.33 -10.9 5.66 -16 6 C-16.66 4.68 -17.32 3.36 -18 2 C-11.92972642 -0.1583195 -6.40629424 -0.20852314 0 0 Z " fill="#41C3D3" transform="translate(163,91)"/>
<path d="M0 0 C-0.69867188 0.31453125 -1.39734375 0.6290625 -2.1171875 0.953125 C-3.02726562 1.38109375 -3.93734375 1.8090625 -4.875 2.25 C-6.23238281 2.87648438 -6.23238281 2.87648438 -7.6171875 3.515625 C-10.24105932 5.1501681 -10.80270929 6.23524174 -12 9 C-14.0625 9.625 -14.0625 9.625 -16 10 C-16.33 10.66 -16.66 11.32 -17 12 C-16.34 12 -15.68 12 -15 12 C-15.33 12.66 -15.66 13.32 -16 14 C-17.32 13.01 -18.64 12.02 -20 11 C-7.6612411 -2.76703967 -7.6612411 -2.76703967 0 0 Z " fill="#041D30" transform="translate(151,98)"/>
<path d="M0 0 C0.33 0.99 0.66 1.98 1 3 C0.01 3.66 -0.98 4.32 -2 5 C-1.67 5.66 -1.34 6.32 -1 7 C-1.93972656 7.09087891 -1.93972656 7.09087891 -2.8984375 7.18359375 C-3.71570313 7.26738281 -4.53296875 7.35117188 -5.375 7.4375 C-6.18710938 7.51871094 -6.99921875 7.59992188 -7.8359375 7.68359375 C-10.04272805 7.89090114 -10.04272805 7.89090114 -12 9 C-13.54023996 9.06950541 -15.08334988 9.08452357 -16.625 9.0625 C-17.85089844 9.04896484 -17.85089844 9.04896484 -19.1015625 9.03515625 C-20.04128906 9.01775391 -20.04128906 9.01775391 -21 9 C-16.84782432 6.75961744 -12.46117381 5.49925402 -7.97265625 4.09765625 C-5.04822737 3.017808 -2.61211921 1.68849695 0 0 Z " fill="#071C31" transform="translate(221,206)"/>
<path d="M0 0 C0.99 0.495 0.99 0.495 2 1 C1.94779297 2.50626953 1.94779297 2.50626953 1.89453125 4.04296875 C1.67843168 13.20919231 2.44889419 21.13187027 5 30 C1.125 28.25 1.125 28.25 0 26 C-0.08510205 24.0406396 -0.10717656 22.07837206 -0.09765625 20.1171875 C-0.09443359 18.95058594 -0.09121094 17.78398437 -0.08789062 16.58203125 C-0.07951172 15.35871094 -0.07113281 14.13539063 -0.0625 12.875 C-0.05798828 11.64394531 -0.05347656 10.41289062 -0.04882812 9.14453125 C-0.0370133 6.09630608 -0.02054028 3.04817686 0 0 Z " fill="#061F35" transform="translate(45,164)"/>
<path d="M0 0 C1.98 0 3.96 0 6 0 C6.5345256 1.24420647 7.05208611 2.49570936 7.5625 3.75 C7.85253906 4.44609375 8.14257812 5.1421875 8.44140625 5.859375 C9.07831803 8.30012784 8.80248831 9.6403655 8 12 C5 11 5 11 4 10 C3.34 10 2.68 10 2 10 C2 8.35 2 6.7 2 5 C2.99 5 3.98 5 5 5 C4.67 3.68 4.34 2.36 4 1 C2.35 1.33 0.7 1.66 -1 2 C-0.67 1.34 -0.34 0.68 0 0 Z " fill="#40CFDA" transform="translate(137,152)"/>
<path d="M0 0 C1.32 0 2.64 0 4 0 C4 1.65 4 3.3 4 5 C2.68 5.33 1.36 5.66 0 6 C0.66 6.33 1.32 6.66 2 7 C0.35 7.66 -1.3 8.32 -3 9 C-3 9.66 -3 10.32 -3 11 C-4.65 11 -6.3 11 -8 11 C-8 9.35 -8 7.7 -8 6 C-5.69 6 -3.38 6 -1 6 C-0.67 4.02 -0.34 2.04 0 0 Z " fill="#0C0D21" transform="translate(177,153)"/>
<path d="M0 0 C1.32 0.33 2.64 0.66 4 1 C3.48050781 1.40089844 2.96101563 1.80179688 2.42578125 2.21484375 C-2.88189912 6.54143718 -6.08480375 10.81922334 -9 17 C-9.33 17 -9.66 17 -10 17 C-10.125 10.25 -10.125 10.25 -9 8 C-8.01 8 -7.02 8 -6 8 C-6 6.68 -6 5.36 -6 4 C-5.34 3.34 -4.68 2.68 -4 2 C-2.68 2 -1.36 2 0 2 C0 1.34 0 0.68 0 0 Z " fill="#091326" transform="translate(59,143)"/>
<path d="M0 0 C-0.99 0.495 -0.99 0.495 -2 1 C-2 1.66 -2 2.32 -2 3 C-6.95 5.475 -6.95 5.475 -12 8 C-12 6.35 -12 4.7 -12 3 C-7.86388449 -0.74219975 -5.36067712 -1.53162203 0 0 Z " fill="#44DCE7" transform="translate(149,95)"/>
<path d="M0 0 C0.66 0 1.32 0 2 0 C0.25267359 6.26480445 -1.97120279 10.88233868 -6 16 C-6.66 15.01 -7.32 14.02 -8 13 C-7.34 12.67 -6.68 12.34 -6 12 C-6 9.36 -6 6.72 -6 4 C-5.01 4.33 -4.02 4.66 -3 5 C-0.7763932 3.0745356 -0.7763932 3.0745356 0 0 Z " fill="#081930" transform="translate(233,180)"/>
<path d="M0 0 C3 2 3 2 4 5 C5.33076989 5.34342449 6.66431979 5.67619874 8 6 C10.29013653 9.4352048 10.17842973 10.985331 10 15 C11.65 15 13.3 15 15 15 C15 15.33 15 15.66 15 16 C13.02 16 11.04 16 9 16 C9 14.35 9 12.7 9 11 C8.34 11 7.68 11 7 11 C7 10.34 7 9.68 7 9 C4.69 8.34 2.38 7.68 0 7 C0 4.69 0 2.38 0 0 Z " fill="#0B3849" transform="translate(160,130)"/>
<path d="M0 0 C0.66 0 1.32 0 2 0 C2.33 0.33 2.66 0.66 3 1 C3.66 1.515625 4.32 2.03125 5 2.5625 C7.82224995 6.00211713 7.7069487 8.60423053 8 13 C6.79371992 10.66785852 5.8345262 8.50357861 5 6 C3.02 6 1.04 6 -1 6 C-1.66 7.98 -2.32 9.96 -3 12 C-3.66 11.01 -4.32 10.02 -5 9 C-3.35 6.03 -1.7 3.06 0 0 Z " fill="#061930" transform="translate(138,147)"/>
<path d="M0 0 C0.83595703 0.00451172 1.67191406 0.00902344 2.53320312 0.01367188 C4.58466649 0.02539452 6.63609273 0.04332797 8.6875 0.0625 C9.0175 0.7225 9.3475 1.3825 9.6875 2.0625 C8.63691406 2.01609375 7.58632812 1.9696875 6.50390625 1.921875 C-3.97434076 1.58992913 -3.97434076 1.58992913 -13.7109375 5.1875 C-15.3125 6.0625 -15.3125 6.0625 -17.3125 6.0625 C-17.3125 5.4025 -17.3125 4.7425 -17.3125 4.0625 C-16.6525 4.0625 -15.9925 4.0625 -15.3125 4.0625 C-14.9825 3.0725 -14.6525 2.0825 -14.3125 1.0625 C-9.54157044 -0.17152862 -4.88780554 -0.05015112 0 0 Z " fill="#031F36" transform="translate(110.3125,104.9375)"/>
<path d="M0 0 C2.17975966 3.26963949 2.36904422 4.21729678 2 8 C1.17994737 9.96812631 0.5078517 11.4921483 -1 13 C-1.36760731 15.32817964 -1.70241581 17.6618385 -2 20 C-2.66 19.67 -3.32 19.34 -4 19 C-3.66944259 12.05829437 -3.24571282 6.20918975 0 0 Z " fill="#091F34" transform="translate(89,122)"/>
<path d="M0 0 C0.33 0 0.66 0 1 0 C3.14084507 14.71830986 3.14084507 14.71830986 1 19 C0.34 19 -0.32 19 -1 19 C-1.0272616 16.95840905 -1.04651345 14.91671037 -1.0625 12.875 C-1.07410156 11.73804688 -1.08570313 10.60109375 -1.09765625 9.4296875 C-1.005327 6.1870844 -0.61389906 3.18067388 0 0 Z " fill="#41E8F6" transform="translate(239,154)"/>
<path d="M0 0 C0.33 1.32 0.66 2.64 1 4 C3.31 4 5.62 4 8 4 C8 5.65 8 7.3 8 9 C5.69 9 3.38 9 1 9 C0.08941469 5.92677456 -0.08886184 3.19902639 0 0 Z " fill="#052B3D" transform="translate(112,155)"/>
<path d="M0 0 C-1.98 0.99 -1.98 0.99 -4 2 C-1.03 2 1.94 2 5 2 C4.67 2.66 4.34 3.32 4 4 C1.05859375 4.6328125 1.05859375 4.6328125 -2.5625 5.125 C-3.76003906 5.29257813 -4.95757812 5.46015625 -6.19140625 5.6328125 C-7.11824219 5.75398437 -8.04507813 5.87515625 -9 6 C-8.67 4.68 -8.34 3.36 -8 2 C-8.66 1.67 -9.32 1.34 -10 1 C-3.71428571 -1.42857143 -3.71428571 -1.42857143 0 0 Z " fill="#3DC2D0" transform="translate(81,138)"/>
<path d="M0 0 C0.66 0 1.32 0 2 0 C2.26218749 3.14624993 2.24754367 4.61837017 0.5 7.3125 C-0.2425 8.1478125 -0.2425 8.1478125 -1 9 C-2.65 8.67 -4.3 8.34 -6 8 C-6 7.01 -6 6.02 -6 5 C-4.36368108 3.95107762 -2.69514137 2.95093297 -1 2 C-0.67 1.34 -0.34 0.68 0 0 Z " fill="#43DDE8" transform="translate(129,106)"/>
<path d="M0 0 C0.33 0 0.66 0 1 0 C1.32644414 4.16216275 1.40650982 6.36313462 -0.875 9.9375 C-3 12 -3 12 -5 12 C-4.745504 10.51793505 -4.47088238 9.03931385 -4.1875 7.5625 C-4.03667969 6.73878906 -3.88585937 5.91507813 -3.73046875 5.06640625 C-3.48941406 4.38449219 -3.24835938 3.70257813 -3 3 C-2.01 2.67 -1.02 2.34 0 2 C0 1.34 0 0.68 0 0 Z " fill="#47E0ED" transform="translate(235,184)"/>
<path d="M0 0 C2 2 2 2 2.1953125 4.6015625 C2.17210937 5.59929687 2.14890625 6.59703125 2.125 7.625 C2.10695312 8.62789062 2.08890625 9.63078125 2.0703125 10.6640625 C2.03550781 11.82035156 2.03550781 11.82035156 2 13 C1.34 13 0.68 13 0 13 C-0.99 9.7 -1.98 6.4 -3 3 C-2.34 3 -1.68 3 -1 3 C-0.67 2.01 -0.34 1.02 0 0 Z " fill="#44D7E5" transform="translate(236,144)"/>
<path d="M0 0 C4.15269956 4.58228917 7 9.73448807 7 16 C6.34 16 5.68 16 5 16 C4.54625 14.865625 4.0925 13.73125 3.625 12.5625 C2.42904194 8.95278308 2.42904194 8.95278308 0 8 C0 5.36 0 2.72 0 0 Z " fill="#092338" transform="translate(229,141)"/>
<path d="M0 0 C2.32472205 2.85306797 3.7508258 5.54074837 5 9 C7.31 9.33 9.62 9.66 12 10 C12 10.33 12 10.66 12 11 C8.33333333 11 4.66666667 11 1 11 C-1.1385485 8.8614515 -1.42655063 7.86724686 -2 5 C-1.34 5 -0.68 5 0 5 C0 4.67 0 4.34 0 4 C0 2.68 0 1.36 0 0 Z " fill="#44CCD9" transform="translate(191,109)"/>
<path d="M0 0 C7.41017023 -0.11459026 14.64206267 0.08839714 22 1 C22.33 2.32 22.66 3.64 23 5 C21.76636719 4.69255859 21.76636719 4.69255859 20.5078125 4.37890625 C13.66895545 2.72841996 7.02324312 1.45976084 0 1 C0 0.67 0 0.34 0 0 Z " fill="#042136" transform="translate(153,90)"/>
<path d="M0 0 C1.65 0 3.3 0 5 0 C5 1.65 5 3.3 5 5 C2.69 5 0.38 5 -2 5 C-1.67 5.99 -1.34 6.98 -1 8 C1.97 8.495 1.97 8.495 5 9 C4.67 9.66 4.34 10.32 4 11 C1.69 10.34 -0.62 9.68 -3 9 C-3.625 6.625 -3.625 6.625 -4 4 C-3.34 3.34 -2.68 2.68 -2 2 C-2 2.66 -2 3.32 -2 4 C-0.02 4 1.96 4 4 4 C4 3.01 4 2.02 4 1 C2.68 0.67 1.36 0.34 0 0 Z " fill="#0A4457" transform="translate(115,168)"/>
<path d="M0 0 C1.32 0 2.64 0 4 0 C4.103125 0.94875 4.20625 1.8975 4.3125 2.875 C4.68539295 6.29107501 4.68539295 6.29107501 8 8 C6.35 7.67 4.7 7.34 3 7 C3 6.34 3 5.68 3 5 C2.34 5 1.68 5 1 5 C0.67 5.99 0.34 6.98 0 8 C-1.65 8 -3.3 8 -5 8 C-4.0409375 7.690625 -4.0409375 7.690625 -3.0625 7.375 C-0.65074923 6.10461791 -0.65074923 6.10461791 -0.25 2.875 C-0.1675 1.92625 -0.085 0.9775 0 0 Z " fill="#44D5E3" transform="translate(147,130)"/>
<path d="M0 0 C5.75712696 5.43728657 9.16522376 10.35509901 11 18 C10.01 17.67 9.02 17.34 8 17 C6.97265625 14.890625 6.97265625 14.890625 6.0625 12.25 C4.55789822 8.1835087 2.87688596 5.28786966 0 2 C0 1.34 0 0.68 0 0 Z " fill="#032238" transform="translate(181,104)"/>
<path d="M0 0 C0.33 0 0.66 0 1 0 C1.02705729 1.77074917 1.04642195 3.54161711 1.0625 5.3125 C1.07410156 6.29863281 1.08570313 7.28476563 1.09765625 8.30078125 C1 11 1 11 0 14 C-0.66 14 -1.32 14 -2 14 C-2.05410687 12.22950311 -2.09284119 10.45853151 -2.125 8.6875 C-2.14820313 7.70136719 -2.17140625 6.71523437 -2.1953125 5.69921875 C-2 3 -2 3 0 0 Z " fill="#39EBF7" transform="translate(49,167)"/>
<path d="M0 0 C1.125 3.75 1.125 3.75 0 6 C0.66 6.33 1.32 6.66 2 7 C0.68 8.32 -0.64 9.64 -2 11 C-2.99 10.67 -3.98 10.34 -5 10 C-3.49760034 6.38058265 -2.17854707 3.2678206 0 0 Z " fill="#42D8E5" transform="translate(230,190)"/>
<path d="M0 0 C2.97 0.33 5.94 0.66 9 1 C9 3.64 9 6.28 9 9 C6 6 3 3 0 0 Z " fill="#0A2134" transform="translate(224,129)"/>
<path d="M0 0 C0.625 1.8125 0.625 1.8125 1 4 C0.01 5.485 0.01 5.485 -1 7 C-1.66 6.67 -2.32 6.34 -3 6 C-3.33 6.66 -3.66 7.32 -4 8 C-4 7.34 -4 6.68 -4 6 C-5.65 6 -7.3 6 -9 6 C-9 4.68 -9 3.36 -9 2 C-6.69 2.66 -4.38 3.32 -2 4 C-1.34 2.68 -0.68 1.36 0 0 Z " fill="#071A30" transform="translate(130,111)"/>
<path d="M0 0 C2.97 0.495 2.97 0.495 6 1 C8 6.625 8 6.625 8 10 C7.34 10.66 6.68 11.32 6 12 C4 8 2 4 0 0 Z " fill="#072236" transform="translate(189,106)"/>
<path d="M0 0 C0.33 1.32 0.66 2.64 1 4 C-3.625 7 -3.625 7 -7 7 C-7 8.98 -7 10.96 -7 13 C-7.66 13 -8.32 13 -9 13 C-9 11.02 -9 9.04 -9 7 C-8.071875 6.5875 -7.14375 6.175 -6.1875 5.75 C-3.11945319 4.06558214 -1.80959535 2.91545917 0 0 Z " fill="#093146" transform="translate(169,180)"/>
<path d="M0 0 C2.97 0 5.94 0 9 0 C5.77260428 1.61369786 2.53630285 3.13833919 -0.75 4.625 C-1.73484375 5.07101563 -2.7196875 5.51703125 -3.734375 5.9765625 C-4.85585937 6.48316406 -4.85585937 6.48316406 -6 7 C-5.67 5.68 -5.34 4.36 -5 3 C-3.35 2.67 -1.7 2.34 0 2 C0 1.34 0 0.68 0 0 Z " fill="#031B2F" transform="translate(143,91)"/>
<path d="M0 0 C0.83660156 0.17144531 1.67320312 0.34289062 2.53515625 0.51953125 C4.86840613 1.16828853 6.81834186 2.02759127 8.9375 3.1875 C8.9375 3.8475 8.9375 4.5075 8.9375 5.1875 C8.15246094 4.98253906 7.36742187 4.77757813 6.55859375 4.56640625 C1.02732255 3.14795756 -4.38620402 1.83253363 -10.0625 1.1875 C-10.0625 0.8575 -10.0625 0.5275 -10.0625 0.1875 C-6.38368391 -0.74043036 -3.7031701 -0.79558059 0 0 Z " fill="#03283A" transform="translate(206.0625,117.8125)"/>
<path d="M0 0 C2.31 0 4.62 0 7 0 C7 6.27 7 12.54 7 19 C6.67 19 6.34 19 6 19 C6 13.06 6 7.12 6 1 C2.0285831 1.62841973 2.0285831 1.62841973 0 4 C-0.33 3.01 -0.66 2.02 -1 1 C-0.67 0.67 -0.34 0.34 0 0 Z " fill="#021830" transform="translate(150,151)"/>
<path d="M0 0 C0.33 0.66 0.66 1.32 1 2 C0.54625 2.391875 0.0925 2.78375 -0.375 3.1875 C-2.27642919 5.30832487 -3.06204028 7.33042235 -4 10 C-4.99 10 -5.98 10 -7 10 C-7 10.99 -7 11.98 -7 13 C-7.66 13 -8.32 13 -9 13 C-7.47987323 7.59510481 -3.72614782 4.01507372 0 0 Z " fill="#04172A" transform="translate(63,149)"/>
<path d="M0 0 C1.32 0.66 2.64 1.32 4 2 C3.01 3.485 3.01 3.485 2 5 C2 4.34 2 3.68 2 3 C1.34 3 0.68 3 0 3 C-0.33 4.65 -0.66 6.3 -1 8 C-3.31 8 -5.62 8 -8 8 C-7.67 8.99 -7.34 9.98 -7 11 C-7.66 11 -8.32 11 -9 11 C-9 9.68 -9 8.36 -9 7 C-6.69 7 -4.38 7 -2 7 C-1.855625 6.030625 -1.71125 5.06125 -1.5625 4.0625 C-1 1 -1 1 0 0 Z " fill="#48D5E4" transform="translate(122,139)"/>
<path d="M0 0 C0 0.66 0 1.32 0 2 C-0.99 2 -1.98 2 -3 2 C-3.2475 2.61875 -3.495 3.2375 -3.75 3.875 C-5.24624309 6.41861325 -6.31072677 6.8926522 -9 8 C-10.11375 8.556875 -10.11375 8.556875 -11.25 9.125 C-11.8275 9.41375 -12.405 9.7025 -13 10 C-10.19169481 5.05738286 -6.30385257 0 0 0 Z " fill="#06253B" transform="translate(103,112)"/>
<path d="M0 0 C1.31611677 0.95336021 2.62778961 1.91285774 3.9375 2.875 C4.66839844 3.40867188 5.39929687 3.94234375 6.15234375 4.4921875 C8 6 8 6 9 8 C6.08482708 6.92598892 4.22189824 6.22189824 2 4 C1.67 4.66 1.34 5.32 1 6 C1.66 6 2.32 6 3 6 C2.67 6.66 2.34 7.32 2 8 C1.01 7.34 0.02 6.68 -1 6 C-1.25 3.4375 -1.25 3.4375 -1 1 C-0.67 0.67 -0.34 0.34 0 0 Z " fill="#43CFDE" transform="translate(58,198)"/>
<path d="M0 0 C2.64 0 5.28 0 8 0 C8 0.66 8 1.32 8 2 C7.34 2 6.68 2 6 2 C6 2.66 6 3.32 6 4 C5.01 4 4.02 4 3 4 C2.67 4.66 2.34 5.32 2 6 C2 5.01 2 4.02 2 3 C-0.31 3.33 -2.62 3.66 -5 4 C-5 3.34 -5 2.68 -5 2 C-3.35 2 -1.7 2 0 2 C0 1.34 0 0.68 0 0 Z " fill="#09182A" transform="translate(148,170)"/>
<path d="M0 0 C1.875 0.5 1.875 0.5 4 2 C4.98494554 4.65177645 5.45912382 7.20547307 6 10 C5.01 10.495 5.01 10.495 4 11 C4 10.01 4 9.02 4 8 C3.01 7.67 2.02 7.34 1 7 C0.67 4.69 0.34 2.38 0 0 Z " fill="#42E5EF" transform="translate(187,106)"/>
<path d="M0 0 C1.98 0 3.96 0 6 0 C6 1.32 6 2.64 6 4 C3.36 4 0.72 4 -2 4 C-2 3.34 -2 2.68 -2 2 C-1.34 2 -0.68 2 0 2 C0 1.34 0 0.68 0 0 Z " fill="#44E1EE" transform="translate(170,164)"/>
<path d="M0 0 C1.65 0 3.3 0 5 0 C5 2.31 5 4.62 5 7 C3.68 6.67 2.36 6.34 1 6 C0.67 4.02 0.34 2.04 0 0 Z " fill="#4CDCE7" transform="translate(128,186)"/>
<path d="M0 0 C1.65 0 3.3 0 5 0 C4.67 1.32 4.34 2.64 4 4 C3.34 4 2.68 4 2 4 C1.67 4.66 1.34 5.32 1 6 C-0.98 6 -2.96 6 -5 6 C-4.67 4.68 -4.34 3.36 -4 2 C-4 2.99 -4 3.98 -4 5 C-2.68 5 -1.36 5 0 5 C0 3.35 0 1.7 0 0 Z " fill="#093248" transform="translate(137,166)"/>
<path d="M0 0 C2.31 0 4.62 0 7 0 C6.67 1.32 6.34 2.64 6 4 C4.02 4 2.04 4 0 4 C0 2.68 0 1.36 0 0 Z " fill="#46DDE7" transform="translate(113,164)"/>
<path d="M0 0 C0.66 0.33 1.32 0.66 2 1 C2 1.66 2 2.32 2 3 C1.34 3.66 0.68 4.32 0 5 C-0.71408334 6.98356483 -1.38617742 8.98315437 -2 11 C-2.66 11 -3.32 11 -4 11 C-4.25 5.375 -4.25 5.375 -2 2 C-1.34 2 -0.68 2 0 2 C0 1.34 0 0.68 0 0 Z " fill="#3DE7F3" transform="translate(53,155)"/>
<path d="M0 0 C0.33 0 0.66 0 1 0 C1 1.98 1 3.96 1 6 C-1.64 6.99 -4.28 7.98 -7 9 C-8 8 -8 8 -8.0625 5.4375 C-8.041875 4.633125 -8.02125 3.82875 -8 3 C-7.01 3.495 -7.01 3.495 -6 4 C-5.34 4 -4.68 4 -4 4 C-2.66216607 4.31478446 -1.32796291 4.64587656 0 5 C0 3.35 0 1.7 0 0 Z " fill="#092C3F" transform="translate(128,131)"/>
<path d="M0 0 C5.99291003 0.41330414 9.25036599 1.31903365 14 5 C10.98968256 5.93423645 10.13349732 6.04449911 7 5 C7 4.01 7 3.02 7 2 C4.69 1.67 2.38 1.34 0 1 C0 0.67 0 0.34 0 0 Z " fill="#072238" transform="translate(165,97)"/>
<path d="M0 0 C1.17539996 0.92652701 2.34010577 1.86663387 3.5 2.8125 C4.1496875 3.33457031 4.799375 3.85664063 5.46875 4.39453125 C7 6 7 6 7 9 C5.35 8.67 3.7 8.34 2 8 C1.34 5.36 0.68 2.72 0 0 Z " fill="#072031" transform="translate(55,201)"/>
<path d="M0 0 C-0.72316406 0.61488281 -0.72316406 0.61488281 -1.4609375 1.2421875 C-2.09257812 1.78101562 -2.72421875 2.31984375 -3.375 2.875 C-4.00148437 3.40867187 -4.62796875 3.94234375 -5.2734375 4.4921875 C-6.55836651 5.61432007 -7.79371975 6.79371975 -9 8 C-8.75 4.625 -8.75 4.625 -8 1 C-5.11121229 -1.39072086 -3.42950134 -0.97780332 0 0 Z " fill="#041625" transform="translate(136,99)"/>
<path d="M0 0 C1.98 0 3.96 0 6 0 C5.67 1.65 5.34 3.3 5 5 C3.35 5 1.7 5 0 5 C0 3.35 0 1.7 0 0 Z " fill="#063C53" transform="translate(169,159)"/>
<path d="M0 0 C1 3 1 3 0 6 C-1.65 6 -3.3 6 -5 6 C-4.75 4.125 -4.75 4.125 -4 2 C-1.9375 0.75 -1.9375 0.75 0 0 Z " fill="#3CDCE8" transform="translate(61,146)"/>
<path d="M0 0 C-1.33333333 0.66666667 -2.66666667 1.33333333 -4 2 C-4.61875 2.391875 -5.2375 2.78375 -5.875 3.1875 C-8.82134214 4.31404258 -10.97903796 3.68658228 -14 3 C-10.07503936 -0.92496064 -5.24412188 -0.08740203 0 0 Z " fill="#041C2F" transform="translate(85,142)"/>
<path d="M0 0 C0.99 0.33 1.98 0.66 3 1 C2.34 4.96 1.68 8.92 1 13 C0.01 12.67 -0.98 12.34 -2 12 C-1.47916667 10.046875 -0.95833333 8.09375 -0.4375 6.140625 C0.13349349 3.71098139 0.13349349 3.71098139 0 0 Z " fill="#05172A" transform="translate(80,124)"/>
<path d="M0 0 C1.0680182 2.77684731 0.96475091 4.16022313 0.3125 7.125 C-1 10 -1 10 -3.125 11.375 C-3.74375 11.58125 -4.3625 11.7875 -5 12 C-3.41037341 7.96479403 -1.71767682 3.98188718 0 0 Z " fill="#072C40" transform="translate(239,182)"/>
<path d="M0 0 C0.33 0.66 0.66 1.32 1 2 C1.66 2 2.32 2 3 2 C2.67 3.32 2.34 4.64 2 6 C2.66 6.33 3.32 6.66 4 7 C1.625 6.6875 1.625 6.6875 -1 6 C-1.66 5.01 -2.32 4.02 -3 3 C-2.01 2.67 -1.02 2.34 0 2 C0 1.34 0 0.68 0 0 Z " fill="#42D0E1" transform="translate(124,179)"/>
<path d="M0 0 C1.98 0 3.96 0 6 0 C6 0.99 6 1.98 6 3 C6.66 3 7.32 3 8 3 C8.33 2.34 8.66 1.68 9 1 C9 2.65 9 4.3 9 6 C7.68 6 6.36 6 5 6 C4.67 4.35 4.34 2.7 4 1 C2.68 0.67 1.36 0.34 0 0 Z " fill="#4AD4E2" transform="translate(138,165)"/>
<path d="M0 0 C1.98 0.99 1.98 0.99 4 2 C4 3.65 4 5.3 4 7 C2.68 7 1.36 7 0 7 C0 4.69 0 2.38 0 0 Z " fill="#4BD3E1" transform="translate(133,164)"/>
<path d="M0 0 C0 0.99 0 1.98 0 3 C-4.455 3.495 -4.455 3.495 -9 4 C-6.25137935 -0.12293098 -4.89482776 0 0 0 Z " fill="#3AEDF8" transform="translate(85,137)"/>
<path d="M0 0 C1.98 0 3.96 0 6 0 C6 1.32 6 2.64 6 4 C4.02 4 2.04 4 0 4 C0 2.68 0 1.36 0 0 Z " fill="#4BDBE7" transform="translate(170,155)"/>
<path d="M0 0 C1.17732706 3.67914707 1 7.16659144 1 11 C1.33 11.66 1.66 12.32 2 13 C0.68 13 -0.64 13 -2 13 C-1.85851011 11.3954444 -1.71164314 9.79136233 -1.5625 8.1875 C-1.48128906 7.29417969 -1.40007812 6.40085938 -1.31640625 5.48046875 C-1 3 -1 3 0 0 Z " fill="#3DBFCE" transform="translate(83,124)"/>
<path d="M0 0 C0.66 0 1.32 0 2 0 C2 1.65 2 3.3 2 5 C2.66 5 3.32 5 4 5 C4.33 3.68 4.66 2.36 5 1 C5 2.98 5 4.96 5 7 C3.35 6.67 1.7 6.34 0 6 C0 4.02 0 2.04 0 0 Z " fill="#043B4E" transform="translate(151,130)"/>
<path d="M0 0 C-0.33 2.64 -0.66 5.28 -1 8 C-1.37125 7.1028125 -1.37125 7.1028125 -1.75 6.1875 C-3.16370012 3.71352479 -4.65055383 2.56629745 -7 1 C-4.53721199 -0.231394 -2.7204945 -0.07159196 0 0 Z " fill="#33EFFB" transform="translate(160,183)"/>
<path d="M0 0 C1.32 0 2.64 0 4 0 C2.7508258 3.45925163 1.32472205 6.14693203 -1 9 C-1.125 2.25 -1.125 2.25 0 0 Z " fill="#06212F" transform="translate(50,151)"/>
<path d="M0 0 C2.97 0.33 5.94 0.66 9 1 C7.02 1.99 7.02 1.99 5 3 C4.19471111 5.05000871 4.19471111 5.05000871 4 7 C3.34 7 2.68 7 2 7 C1.34 4.69 0.68 2.38 0 0 Z " fill="#090F24" transform="translate(151,128)"/>
<path d="M0 0 C2.52588702 2.36292656 3.88820837 3.66462511 5 7 C3.35 7 1.7 7 0 7 C-1.125 2.25 -1.125 2.25 0 0 Z " fill="#082637" transform="translate(50,194)"/>
<path d="M0 0 C2.475 0.99 2.475 0.99 5 2 C3.37660195 3.70884005 1.70680947 5.37446717 0 7 C-0.66 7 -1.32 7 -2 7 C-1.67 6.401875 -1.34 5.80375 -1 5.1875 C0.20787988 2.94613529 0.20787988 2.94613529 0 0 Z " fill="#0B1C30" transform="translate(219,196)"/>
<path d="M0 0 C0.33 0 0.66 0 1 0 C1 1.65 1 3.3 1 5 C-0.65 5.33 -2.3 5.66 -4 6 C-4 4.35 -4 2.7 -4 1 C-3.34 1 -2.68 1 -2 1 C-2 1.66 -2 2.32 -2 3 C-1.34 3 -0.68 3 0 3 C0 2.01 0 1.02 0 0 Z " fill="#053C4E" transform="translate(146,131)"/>
<path d="M0 0 C0.99 0.495 0.99 0.495 2 1 C2 1.99 2 2.98 2 4 C2.66 4 3.32 4 4 4 C4.33 2.68 4.66 1.36 5 0 C5 1.98 5 3.96 5 6 C3.35 6 1.7 6 0 6 C0 4.02 0 2.04 0 0 Z " fill="#054656" transform="translate(133,131)"/>
<path d="M0 0 C-2.39509338 2.89932357 -4.31245243 3.50168276 -8 4 C-8 3.01 -8 2.02 -8 1 C-5.29120665 -0.35439668 -2.99066732 -0.06501451 0 0 Z " fill="#082134" transform="translate(217,203)"/>
<path d="M0 0 C1.65 0 3.3 0 5 0 C5.33 0.66 5.66 1.32 6 2 C6.99 2.33 7.98 2.66 9 3 C9.33 3.99 9.66 4.98 10 6 C5.56909529 4.79157144 3.01887244 3.48331435 0 0 Z " fill="#062D42" transform="translate(63,202)"/>
<path d="M0 0 C2 1 2 1 4 3 C3 4 3 4 1.15234375 4.09765625 C-0.8984375 4.06510417 -2.94921875 4.03255208 -5 4 C-3.36587557 2.29159719 -2.13093906 1.06546953 0 0 Z " fill="#061931" transform="translate(69,145)"/>
<path d="M0 0 C2.64 0.33 5.28 0.66 8 1 C7.67 1.99 7.34 2.98 7 4 C4.36 4 1.72 4 -1 4 C-1 3.67 -1 3.34 -1 3 C0.65 2.67 2.3 2.34 4 2 C2.68 1.34 1.36 0.68 0 0 Z " fill="#4BDFEE" transform="translate(163,92)"/>
<path d="M0 0 C1.65 0.99 3.3 1.98 5 3 C4.01 3.495 4.01 3.495 3 4 C3.33 4.99 3.66 5.98 4 7 C1.525 6.01 1.525 6.01 -1 5 C-0.34 4.34 0.32 3.68 1 3 C0.67 2.01 0.34 1.02 0 0 Z " fill="#43CEDC" transform="translate(216,124)"/>
<path d="M0 0 C1.65 0 3.3 0 5 0 C5.66 1.65 6.32 3.3 7 5 C5.68 4.67 4.36 4.34 3 4 C3 3.34 3 2.68 3 2 C2.01 1.67 1.02 1.34 0 1 C0 0.67 0 0.34 0 0 Z " fill="#40E9F5" transform="translate(174,97)"/>
<path d="M0 0 C-2 2 -2 2 -4.1640625 2.1953125 C-5.38222656 2.16050781 -5.38222656 2.16050781 -6.625 2.125 C-7.44226563 2.10695312 -8.25953125 2.08890625 -9.1015625 2.0703125 C-9.72804687 2.04710937 -10.35453125 2.02390625 -11 2 C-4.29242175 -1.43080725 -4.29242175 -1.43080725 0 0 Z " fill="#072E41" transform="translate(211,213)"/>
<path d="M0 0 C2.31 0 4.62 0 7 0 C6.34 1.32 5.68 2.64 5 4 C2.525 3.01 2.525 3.01 0 2 C0 1.34 0 0.68 0 0 Z " fill="#33EFF9" transform="translate(126,183)"/>
<path d="M0 0 C0.33 0 0.66 0 1 0 C2.125 5.75 2.125 5.75 1 8 C0.01 7.67 -0.98 7.34 -2 7 C-1.125 2.25 -1.125 2.25 0 0 Z " fill="#3CE5F2" transform="translate(238,176)"/>
<path d="M0 0 C2.475 0.495 2.475 0.495 5 1 C5.33 1.99 5.66 2.98 6 4 C4.02 4 2.04 4 0 4 C0 2.68 0 1.36 0 0 Z " fill="#4FD3E5" transform="translate(113,155)"/>
<path d="M0 0 C1.32 0 2.64 0 4 0 C3.67 1.32 3.34 2.64 3 4 C1.35 3.67 -0.3 3.34 -2 3 C-1.34 2.01 -0.68 1.02 0 0 Z " fill="#43E8F1" transform="translate(69,140)"/>
<path d="M0 0 C2.97 1.98 2.97 1.98 6 4 C4.68 4.99 3.36 5.98 2 7 C1.34 6.34 0.68 5.68 0 5 C0.66 5 1.32 5 2 5 C1.34 3.35 0.68 1.7 0 0 Z " fill="#3FC9D7" transform="translate(179,97)"/>
<path d="M0 0 C5.75 1.875 5.75 1.875 8 3 C8 3.66 8 4.32 8 5 C2.25 3.375 2.25 3.375 0 0 Z " fill="#041429" transform="translate(59,198)"/>
<path d="M0 0 C0.33 0 0.66 0 1 0 C1 1.98 1 3.96 1 6 C-0.98 6.99 -0.98 6.99 -3 8 C-1.125 2.25 -1.125 2.25 0 0 Z " fill="#3BE5EF" transform="translate(233,188)"/>
<path d="M0 0 C1 3 1 3 0.0625 5.1875 C-0.4634375 6.0846875 -0.4634375 6.0846875 -1 7 C-1.66 7 -2.32 7 -3 7 C-3 5.35 -3 3.7 -3 2 C-2.01 2 -1.02 2 0 2 C0 1.34 0 0.68 0 0 Z " fill="#1DA4BF" transform="translate(142,155)"/>
<path d="M0 0 C2.96404505 2.80804268 5.44499019 5.18315774 7 9 C1.21538462 4.56923077 1.21538462 4.56923077 0.125 1.6875 C0.08375 1.130625 0.0425 0.57375 0 0 Z " fill="#0A3344" transform="translate(181,104)"/>
<path d="M0 0 C0.99 0.66 1.98 1.32 3 2 C1.875 3.5625 1.875 3.5625 0 5 C-3.1875 4.6875 -3.1875 4.6875 -6 4 C-6 3.67 -6 3.34 -6 3 C-5.195625 2.87625 -4.39125 2.7525 -3.5625 2.625 C-2.716875 2.41875 -1.87125 2.2125 -1 2 C-0.67 1.34 -0.34 0.68 0 0 Z " fill="#42C6D5" transform="translate(171,93)"/>
</svg>
