<svg xmlns="http://www.w3.org/2000/svg" viewBox="0 0 382.87 161.14"><defs><style>.cls-1{fill:#8c3123;}.cls-2{fill:#e05243;}.cls-3{fill:#5e1f18;}.cls-4{fill:#f2b0a9;}.cls-5{fill:#201c1d;}</style></defs><title>amazon-s3</title><g id="Layer_2" data-name="Layer 2"><g id="Layer_1-2" data-name="Layer 1"><path class="cls-1" d="M10.74,28,0,33.33V127.6l10.74,5.34.06-.08V28L10.74,28"/><path class="cls-2" d="M68.22,119.26,10.74,132.94V28L68.22,41.34v77.91"/><path class="cls-1" d="M42.28,97.84l24.38,3.1.15-.35.14-40-.29-.31L42.28,63.35V97.84"/><path class="cls-1" d="M66.66,119.41,122.57,133l.09-.14V28.05l-.09-.09L66.66,41.5v77.91"/><path class="cls-2" d="M91,97.84l-24.39,3.1V60.29L91,63.35V97.84"/><path class="cls-3" d="M91,46.68,66.66,51.12,42.28,46.68l24.35-6.38L91,46.68"/><path class="cls-4" d="M91,114.47,66.66,110l-24.38,4.47,24.35,6.8L91,114.47"/><path class="cls-1" d="M42.28,46.68l24.38-6,.2-.06V.16L66.66,0,42.28,12.19V46.68"/><path class="cls-2" d="M91,46.68l-24.39-6V0L91,12.19V46.68"/><path class="cls-1" d="M66.66,161.14,42.27,149V114.47l24.38,6,.36.41-.1,39.53-.26.7"/><path class="cls-2" d="M66.66,161.14,91,149V114.47l-24.39,6v40.64M122.57,28l10.75,5.37V127.6L122.57,133V28"/><path id="path12" class="cls-5" d="M289.23,45.43v-5a1.24,1.24,0,0,1,1.28-1.28h22.58a1.26,1.26,0,0,1,1.3,1.28V44.7c0,.72-.62,1.67-1.7,3.17L301,64.58a24.93,24.93,0,0,1,12.88,2.76,2.3,2.3,0,0,1,1.2,2v5.38c0,.73-.81,1.59-1.66,1.15a26,26,0,0,0-23.85,0c-.78.43-1.6-.43-1.6-1.16V69.6a6.1,6.1,0,0,1,.83-3.47l13.55-19.44H290.53a1.25,1.25,0,0,1-1.3-1.27"/><path id="path14" class="cls-5" d="M206.87,76.89H200a1.3,1.3,0,0,1-1.23-1.17V40.47a1.29,1.29,0,0,1,1.32-1.27h6.4a1.29,1.29,0,0,1,1.25,1.18V45h.13c1.67-4.45,4.81-6.53,9-6.53s7,2.08,8.92,6.53a10.14,10.14,0,0,1,17.44-2.68c2.17,3,1.73,7.27,1.73,11.05V75.62a1.3,1.3,0,0,1-1.32,1.28h-6.86a1.31,1.31,0,0,1-1.24-1.28V56.93a44.12,44.12,0,0,0-.19-6.61c-.51-2.37-2-3-4-3a4.56,4.56,0,0,0-4.11,2.89c-.71,1.78-.64,4.75-.64,6.75V75.62a1.3,1.3,0,0,1-1.32,1.28h-6.86a1.3,1.3,0,0,1-1.24-1.28V56.93c0-3.93.65-9.72-4.23-9.72s-4.74,5.64-4.74,9.72V75.62a1.3,1.3,0,0,1-1.32,1.28"/><path id="path16" class="cls-5" d="M333.82,38.46c10.19,0,15.71,8.75,15.71,19.88,0,10.75-6.1,19.28-15.71,19.28-10,0-15.46-8.75-15.46-19.66s5.52-19.5,15.46-19.5m.06,7.2c-5.06,0-5.38,6.9-5.38,11.2s-.07,13.5,5.32,13.5,5.57-7.42,5.57-11.94a32.59,32.59,0,0,0-1-9.35,4.3,4.3,0,0,0-4.49-3.41"/><path id="path18" class="cls-5" d="M362.74,76.89H355.9a1.31,1.31,0,0,1-1.24-1.28V40.36A1.3,1.3,0,0,1,356,39.21h6.37a1.31,1.31,0,0,1,1.23,1v5.39h.13c1.92-4.82,4.62-7.12,9.36-7.12a9,9,0,0,1,8,4.15c1.8,2.82,1.8,7.56,1.8,11V75.78a1.32,1.32,0,0,1-1.32,1.11h-6.89a1.3,1.3,0,0,1-1.22-1.11V56.63c0-3.85.44-9.5-4.3-9.5a4.49,4.49,0,0,0-4,2.82,15.6,15.6,0,0,0-1.09,6.68v19a1.32,1.32,0,0,1-1.34,1.28"/><path class="cls-5" d="M193.42,70.43c-1.26-1.74-2.59-3.15-2.59-6.37V53.36c0-4.53.32-8.69-3-11.81-2.64-2.53-7-3.42-10.35-3.42-6.53,0-13.82,2.43-15.36,10.51a1.22,1.22,0,0,0,1,1.44l6.67.71A1.44,1.44,0,0,0,171,49.53c.57-2.78,2.91-4.12,5.53-4.12a4.6,4.6,0,0,1,3.85,1.79c1,1.41.83,3.34.83,5v.89c-4,.45-9.19.74-12.92,2.39a11.67,11.67,0,0,0-7.32,11.23c0,7.14,4.5,10.7,10.28,10.7,4.89,0,7.55-1.15,11.32-5A16.91,16.91,0,0,0,186.49,77a1.43,1.43,0,0,0,1.62-.16h0l0,0c1.37-1.22,3.86-3.39,5.26-4.56A1.29,1.29,0,0,0,193.42,70.43ZM179.9,67.34a5.57,5.57,0,0,1-4.75,3.12c-2.64,0-4.17-2-4.17-5,0-5.85,5.25-6.92,10.21-6.92v1.49C181.19,62.73,181.25,65,179.9,67.34Z"/><path class="cls-5" d="M283.46,70.43c-1.26-1.74-2.59-3.15-2.59-6.37V53.36c0-4.53.32-8.69-3-11.81-2.64-2.53-7-3.42-10.35-3.42-6.53,0-13.83,2.43-15.36,10.51a1.21,1.21,0,0,0,1,1.44l6.66.71a1.44,1.44,0,0,0,1.2-1.26c.57-2.78,2.9-4.12,5.52-4.12a4.57,4.57,0,0,1,3.85,1.79c1,1.41.84,3.34.84,5v.89c-4,.45-9.19.74-12.92,2.39A11.66,11.66,0,0,0,251,66.67c0,7.14,4.49,10.7,10.28,10.7,4.88,0,7.55-1.15,11.32-5A16.74,16.74,0,0,0,276.53,77a1.43,1.43,0,0,0,1.62-.16v0c1.37-1.22,3.86-3.39,5.26-4.56A1.3,1.3,0,0,0,283.46,70.43Zm-13.51-3.09a5.58,5.58,0,0,1-4.75,3.12c-2.64,0-4.18-2-4.18-5,0-5.85,5.25-6.92,10.22-6.92v1.49h0C271.23,62.73,271.3,65,269.94,67.34Z"/><path d="M184.38,114.6a10.52,10.52,0,0,0-3.22-3.78,31.42,31.42,0,0,0-5.75-3,23.15,23.15,0,0,1-6-3.26,4.9,4.9,0,0,1-1.56-3.79,5.8,5.8,0,0,1,1.37-3.8,4.83,4.83,0,0,1,3.92-1.68,5.7,5.7,0,0,1,4.29,1.63,11.3,11.3,0,0,1,2.41,4.67l4.77-1.84c-1.65-6.33-5.43-9.53-11.22-9.53a10.38,10.38,0,0,0-8,3.26,12.38,12.38,0,0,0-1.66,13.71,10.24,10.24,0,0,0,3.26,3.73,42.45,42.45,0,0,0,6.37,3.14c2.87,1.22,4.63,2.34,5.37,3.43a6.23,6.23,0,0,1,1.1,3.54,6.32,6.32,0,0,1-1.6,4.37,6,6,0,0,1-4.67,1.78c-4.07,0-6.65-2.53-7.67-7.52l-5,1.56c1.63,7.35,5.79,11.08,12.39,11.08,3.86,0,6.91-1.2,9-3.56a12.5,12.5,0,0,0,3.23-8.65A11.82,11.82,0,0,0,184.38,114.6Z"/><path d="M206.22,110.45l-.63-.19.6-.28a9.18,9.18,0,0,0,5.63-9A10.92,10.92,0,0,0,209,93.11a10.39,10.39,0,0,0-7.77-2.89c-5.68,0-9.42,3.22-11.1,9.57l4.66,1.2c1-4,3-6.06,6-6.06a4.75,4.75,0,0,1,4,1.85,9.1,9.1,0,0,1,.45,8.93,4.61,4.61,0,0,1-2.31,2.08,11.58,11.58,0,0,1-3.73.47h-2.08v4.5h2.08c2.92,0,5,.67,6.07,2a7.69,7.69,0,0,1,1.66,5.08c0,2.61-.62,4.54-1.83,5.76a6,6,0,0,1-4.35,1.83c-3.58,0-5.87-2.34-6.83-7l-4.78,1.26c.6,3.68,2,6.38,4.09,8a12.47,12.47,0,0,0,7.91,2.55,11.67,11.67,0,0,0,8.47-3.21c2.18-2.13,3.29-5.09,3.29-8.82C212.84,115,210.68,111.79,206.22,110.45Z"/></g></g></svg>