<?xml version="1.0" encoding="utf-8"?>
<!-- Generator: Adobe Illustrator 21.1.0, SVG Export Plug-In . SVG Version: 6.00 Build 0)  -->
<svg version="1.1" id="Layer_1" xmlns="http://www.w3.org/2000/svg" xmlns:xlink="http://www.w3.org/1999/xlink" x="0px" y="0px"
	 viewBox="0 0 382.9 161.1" style="enable-background:new 0 0 382.9 161.1;" xml:space="preserve">
<style type="text/css">
	.st0{fill:#201C1D;}
	.st1{fill:#2D72B7;}
	.st2{fill:#5294CE;}
	.st3{fill:#205B98;}
	.st4{fill:#1C4870;}
</style>
<g id="Layer_2">
	<g id="Layer_1-2">
		<path id="path12" class="st0" d="M289.2,45.4v-5c0-0.7,0.5-1.3,1.2-1.3c0,0,0.1,0,0.1,0h22.6c0.7,0,1.3,0.5,1.3,1.2c0,0,0,0,0,0.1
			v4.3c0,0.7-0.6,1.7-1.7,3.2L301,64.6c4.5-0.3,8.9,0.7,12.9,2.8c0.7,0.4,1.2,1.2,1.2,2v5.4c0,0.7-0.8,1.6-1.7,1.2
			c-7.5-3.9-16.4-3.9-23.9,0c-0.8,0.4-1.6-0.4-1.6-1.2v-5.1c-0.1-1.2,0.2-2.4,0.8-3.5l13.5-19.4h-11.8
			C289.8,46.7,289.3,46.2,289.2,45.4C289.2,45.5,289.2,45.4,289.2,45.4"/>
		<path id="path14" class="st0" d="M206.9,76.9H200c-0.6,0-1.2-0.5-1.2-1.2V40.5c0-0.7,0.6-1.3,1.3-1.3c0,0,0,0,0,0h6.4
			c0.7,0,1.2,0.5,1.3,1.2V45h0.1c1.7-4.5,4.8-6.5,9-6.5s7,2.1,8.9,6.5c2-5.2,7.8-7.9,13.1-5.9c1.7,0.7,3.2,1.8,4.4,3.2
			c2.2,3,1.7,7.3,1.7,11v22.3c0,0.7-0.6,1.3-1.3,1.3c0,0,0,0,0,0h-6.9c-0.7,0-1.2-0.6-1.2-1.3V56.9c0.1-2.2,0-4.4-0.2-6.6
			c-0.5-2.4-2-3-4-3c-1.8,0.1-3.4,1.2-4.1,2.9c-0.7,1.8-0.6,4.8-0.6,6.8v18.7c0,0.7-0.6,1.3-1.3,1.3c0,0,0,0,0,0h-6.9
			c-0.7,0-1.2-0.6-1.2-1.3V56.9c0-3.9,0.6-9.7-4.2-9.7s-4.7,5.6-4.7,9.7v18.7C208.2,76.3,207.6,76.9,206.9,76.9
			C206.9,76.9,206.9,76.9,206.9,76.9"/>
		<path id="path16" class="st0" d="M333.8,38.5c10.2,0,15.7,8.8,15.7,19.9c0,10.8-6.1,19.3-15.7,19.3c-10,0-15.5-8.8-15.5-19.7
			S323.9,38.5,333.8,38.5 M333.9,45.7c-5.1,0-5.4,6.9-5.4,11.2s-0.1,13.5,5.3,13.5s5.6-7.4,5.6-11.9c0.1-3.1-0.2-6.3-1-9.4
			C338,47,336,45.5,333.9,45.7"/>
		<path id="path18" class="st0" d="M362.7,76.9h-6.8c-0.7,0-1.2-0.6-1.2-1.3V40.4c0.1-0.7,0.7-1.2,1.3-1.2h6.4c0.6,0,1.1,0.4,1.2,1
			v5.4h0.1c1.9-4.8,4.6-7.1,9.4-7.1c3.2-0.1,6.3,1.4,8,4.2c1.8,2.8,1.8,7.6,1.8,11v22.1c-0.1,0.6-0.7,1.1-1.3,1.1h-6.9
			c-0.6,0-1.1-0.5-1.2-1.1V56.6c0-3.8,0.4-9.5-4.3-9.5c-1.8,0.1-3.3,1.2-4,2.8c-0.8,2.1-1.2,4.4-1.1,6.7v19
			C364,76.4,363.5,76.9,362.7,76.9"/>
		<path class="st0" d="M193.4,70.4c-1.3-1.7-2.6-3.2-2.6-6.4V53.4c0-4.5,0.3-8.7-3-11.8c-2.6-2.5-7-3.4-10.4-3.4
			c-6.5,0-13.8,2.4-15.4,10.5c-0.1,0.7,0.3,1.3,1,1.4c0,0,0,0,0,0l6.7,0.7c0.6-0.1,1.1-0.6,1.2-1.3c0.6-2.8,2.9-4.1,5.5-4.1
			c1.5-0.1,2.9,0.6,3.9,1.8c1,1.4,0.8,3.3,0.8,5v0.9c-4,0.5-9.2,0.7-12.9,2.4c-4.6,1.8-7.5,6.3-7.3,11.2c0,7.1,4.5,10.7,10.3,10.7
			c4.9,0,7.6-1.2,11.3-5c1,1.8,2.3,3.3,3.9,4.6c0.5,0.3,1.2,0.2,1.6-0.2l0,0l0,0c1.4-1.2,3.9-3.4,5.3-4.6
			C193.9,71.8,193.9,71,193.4,70.4C193.4,70.4,193.4,70.4,193.4,70.4z M179.9,67.3c-0.9,1.8-2.7,3-4.8,3.1c-2.6,0-4.2-2-4.2-5
			c0-5.8,5.3-6.9,10.2-6.9V60C181.2,62.7,181.3,65,179.9,67.3z"/>
		<path class="st0" d="M283.5,70.4c-1.3-1.7-2.6-3.2-2.6-6.4V53.4c0-4.5,0.3-8.7-3-11.8c-2.6-2.5-7-3.4-10.4-3.4
			c-6.5,0-13.8,2.4-15.4,10.5c-0.1,0.7,0.3,1.3,0.9,1.4c0,0,0,0,0.1,0l6.7,0.7c0.6-0.1,1.1-0.6,1.2-1.3c0.6-2.8,2.9-4.1,5.5-4.1
			c1.5-0.1,2.9,0.6,3.9,1.8c1,1.4,0.8,3.3,0.8,5v0.9c-4,0.5-9.2,0.7-12.9,2.4c-4.5,1.8-7.5,6.3-7.3,11.2c0,7.1,4.5,10.7,10.3,10.7
			c4.9,0,7.5-1.2,11.3-5c1,1.8,2.3,3.3,3.9,4.6c0.5,0.3,1.2,0.2,1.6-0.2l0,0c1.4-1.2,3.9-3.4,5.3-4.6C283.9,71.8,284,71,283.5,70.4
			C283.5,70.4,283.5,70.4,283.5,70.4z M269.9,67.3c-0.9,1.8-2.7,3-4.8,3.1c-2.6,0-4.2-2-4.2-5c0-5.8,5.3-6.9,10.2-6.9V60l0,0
			C271.2,62.7,271.3,65,269.9,67.3L269.9,67.3z"/>
	</g>
</g>
<g>
	<path class="st1" d="M83.1,151.9c-13,0-25.8,0.1-38.8,0.1c-0.4,0-0.7-0.1-1.1-0.3c0-0.1,0-0.3,0-0.6c0.7-0.7,0.4-1.7,0.4-2.6
		c0-45.3,0-90.7,0-136c0-0.9,0.3-1.7-0.4-2.6c0-0.1,0-0.3,0-0.6c0.4-0.1,0.9-0.3,1.4-0.3c12.4,0,24.8,0,37.2,0
		c0.4,0,0.9,0.1,1.1,0.1c0,1,0.1,2.1,0.1,3.1c0,35.1,0,70.3,0,105.4C83,129.3,83,140.6,83.1,151.9z"/>
	<path class="st2" d="M83.1,151.9c0-11.3,0-22.5,0-33.8c0-35.1,0-70.3,0-105.4c0-1,0-2.1-0.1-3.1c0.6-0.3,0.9,0,1.3,0.3
		c8.7,4.4,17.5,8.7,26.2,13.1c0.6,0.3,1.3,0.6,1.7,1.3c-0.7,0.7-0.4,1.7-0.4,2.6c0,36.1,0,72,0,108.1c0,0.9-0.3,1.7,0.4,2.6
		c-0.3,0.7-0.9,0.9-1.4,1.1c-8.6,4.3-17.3,8.6-25.8,13C84.3,151.6,83.7,152,83.1,151.9z"/>
	<path class="st3" d="M43.2,151.3c0,0.1,0,0.3,0,0.6c-0.6,0.1-0.9-0.1-1.3-0.4c-8.6-4.3-17.3-8.6-25.8-13c-0.4-0.1-0.7-0.6-1.1-0.9
		c0-37.9,0-75.8,0-113.8c1.9-1.6,4.1-2.3,6.3-3.4c6.6-3.3,13.3-6.7,19.8-10c0.7-0.3,1.3-1,2.1-0.9c0,0.1,0,0.3,0,0.6
		C43.2,57.2,43.2,104.2,43.2,151.3z"/>
	<path class="st4" d="M14.8,23.8c0,37.9,0,75.8,0,113.8c-4.7-5.4-9.4-10.8-14.1-16.3c-0.6-0.7-0.7-1.6-0.7-2.4C0,93.4,0,68,0,42.5
		c0-0.9,0-1.7,0.7-2.4C5.4,34.7,10.1,29.2,14.8,23.8z"/>
	<path class="st1" d="M112.2,137.3c-0.7-0.7-0.4-1.7-0.4-2.6c0-36.1,0-72,0-108.1c0-0.9-0.3-1.7,0.4-2.6c4.6,5.3,9.1,10.6,13.7,15.8
		c0.7,0.9,0.9,1.7,0.9,2.7c0,25.4,0,50.9,0,76.3c0,1.1-0.3,2-1,2.9C121.2,126.9,116.6,132,112.2,137.3z"/>
	<path class="st2" d="M43.2,151.3c0-47,0-94.1,0-141c0.7,0.7,0.4,1.7,0.4,2.6c0,45.3,0,90.7,0,136C43.6,149.6,43.9,150.6,43.2,151.3
		z"/>
</g>
<g>
	<path class="st0" d="M160.9,132.6V89.7h15.6c3.3,0,5.7,0.4,7.2,1.2c1.5,0.8,2.8,2.1,3.8,4c1,1.9,1.5,4,1.5,6.5
		c0,3.2-0.8,5.9-2.5,7.9c-1.7,2-4.1,3.3-7.4,3.8c1.3,0.8,2.3,1.6,3,2.4c1.4,1.6,2.6,3.5,3.7,5.5l6.1,11.7H186l-4.7-8.9
		c-1.8-3.5-3.2-5.8-4.1-7c-0.9-1.2-1.8-2-2.7-2.4c-0.9-0.4-2.1-0.6-3.6-0.6h-5.4v19H160.9z M165.5,108.6h10c2.2,0,3.8-0.3,5-0.8
		c1.1-0.5,2-1.4,2.7-2.5c0.7-1.1,1-2.4,1-3.9c0-2.2-0.6-3.9-1.9-5.1c-1.3-1.2-3.1-1.9-5.6-1.9h-11.1V108.6z"/>
	<path class="st0" d="M196.2,132.6V89.7h12.1c3,0,5.3,0.3,6.8,0.8c2,0.7,3.8,1.9,5.3,3.7c1.5,1.8,2.7,4.1,3.5,6.9
		c0.8,2.8,1.3,6,1.3,9.8c0,4.9-0.7,9-2.1,12.3c-1.4,3.4-3.2,5.8-5.5,7.2c-2.2,1.4-5.1,2.1-8.8,2.1H196.2z M200.9,127.5h7.5
		c3,0,5.3-0.5,6.9-1.5c1.6-1,2.8-2.6,3.6-4.7c1.1-2.9,1.7-6.4,1.7-10.4c0-4.3-0.6-7.8-1.8-10.2c-1.2-2.5-2.7-4.1-4.5-5
		c-1.2-0.6-3.2-0.8-5.9-0.8h-7.4V127.5z"/>
	<path class="st0" d="M230.2,118.8l4.4-0.5c0.2,2.4,0.8,4.2,1.6,5.5c0.8,1.3,2,2.4,3.6,3.2c1.5,0.8,3.3,1.2,5.2,1.2
		c2.8,0,4.9-0.7,6.4-2c1.5-1.4,2.3-3.1,2.3-5.3c0-1.3-0.3-2.4-0.8-3.3c-0.6-0.9-1.4-1.7-2.5-2.3c-1.1-0.6-3.5-1.5-7.3-2.6
		c-3.3-1-5.7-2-7.1-3c-1.4-1-2.5-2.3-3.3-3.8c-0.8-1.5-1.2-3.3-1.2-5.2c0-3.5,1.1-6.3,3.4-8.5c2.2-2.2,5.3-3.3,9.1-3.3
		c2.6,0,4.9,0.5,6.9,1.5c2,1,3.5,2.5,4.6,4.4c1.1,1.9,1.7,4.2,1.7,6.8l-4.5,0.4c-0.2-2.8-1.1-4.9-2.5-6.2c-1.4-1.3-3.4-2-6-2
		c-2.6,0-4.6,0.6-6,1.8c-1.4,1.2-2.1,2.7-2.1,4.6c0,1.7,0.5,3.1,1.5,4c1,1,3.3,1.9,6.8,2.9c3.5,1,5.9,1.8,7.3,2.5
		c2.1,1.1,3.8,2.5,4.9,4.3c1.1,1.8,1.6,3.9,1.6,6.4c0,2.5-0.6,4.7-1.7,6.7c-1.1,2-2.7,3.5-4.7,4.6c-2,1.1-4.4,1.6-7.1,1.6
		c-4.3,0-7.8-1.3-10.4-3.9C231.6,126.8,230.3,123.2,230.2,118.8z"/>
</g>
</svg>
