<svg id="Layer_1" data-name="Layer 1" xmlns="http://www.w3.org/2000/svg" viewBox="0 0 300 137.05"><title>apache-kafka</title><path d="M45.36,62.48a25,25,0,0,1,1.18,7.4,23.43,23.43,0,0,1-1.16,7.5l7.79,4.51a18.69,18.69,0,0,1,15.18-5.51,18.21,18.21,0,0,1,11,5,18.63,18.63,0,0,1-18.6,31.27,18.62,18.62,0,0,1-12-22.83l-7.57-4.43A25.27,25.27,0,0,1,28.33,93v8.72a18.74,18.74,0,0,1-5.87,36.78,18.45,18.45,0,0,1-17.4-14.73A17.61,17.61,0,0,1,7.59,110a19.49,19.49,0,0,1,11.49-8.32c0-2.85,0-5.69,0-8.61C12.54,91.69,7.29,88.41,3.69,82.75A23,23,0,0,1,.06,68.56C.71,58.8,6.88,49.6,19,46.9V38.33l-1.12-.41C10.32,35.16,5.69,29.84,4.81,21.84,4.08,15.17,6.65,9.56,11.94,5.36A17.55,17.55,0,0,1,24.45,1.53,18.71,18.71,0,0,1,32.79,36.3c-1.38.79-2.9,1.34-4.46,2v8.4c2.24,1,4.55,1.87,6.74,3A22.06,22.06,0,0,1,41,54.53l7.48-4.4C45.77,37.79,53.31,30,60.19,27.53A18.66,18.66,0,0,1,79.07,58.87c-5.43,5.12-16.65,8-26.1-.78ZM9.67,69.93c-.38,7.26,6.1,13.5,13.22,13.61a13.53,13.53,0,0,0,.43-27.06C15.83,56.35,9.35,62.83,9.67,69.93ZM31.78,20.16a8.68,8.68,0,1,0-17.37,0,8.68,8.68,0,0,0,17.37,0ZM23.11,128.55a8.69,8.69,0,0,0,8.69-8.64,8.69,8.69,0,1,0-17.39,0A8.68,8.68,0,0,0,23.11,128.55ZM75.18,45.06a8.64,8.64,0,0,0-8.63-8.69,8.69,8.69,0,1,0,0,17.39A8.65,8.65,0,0,0,75.18,45.06ZM66.6,86.3a8.62,8.62,0,0,0-8.77,8.55A8.69,8.69,0,1,0,75.21,95,8.63,8.63,0,0,0,66.6,86.3Z" transform="translate(0 -1.48)"/><path d="M101.94,102.84c-.34-1.63-.29-65.43,0-66.51h8.86V76.42c.87-.79,1.56-1.37,2.2-2,3.07-3,6.14-6.1,9.17-9.19a3.18,3.18,0,0,1,2.55-1.06c3,.07,6,0,9,0,.43,0,.87,0,1.65.1-5.6,5.58-11.14,10.74-16.63,16.2,5.81,7.38,11.77,14.6,17.67,22.09a5.32,5.32,0,0,1-1,.25c-3.18,0-6.35,0-9.53,0a2.36,2.36,0,0,1-2-1.23l-11-14c-.19-.25-.41-.47-.61-.71a2.4,2.4,0,0,0-1.4,2.48c.06,3.91,0,7.82,0,11.73v1.62C107.81,102.95,104.9,102.8,101.94,102.84Z" transform="translate(0 -1.48)"/><path d="M218.52,76.36c1.41-1.38,2.59-2.52,3.76-3.69,2.54-2.53,5.09-5.06,7.6-7.62a2.6,2.6,0,0,1,2.05-.87c3.22,0,6.44,0,9.66,0,.32,0,.63,0,1,0-.35.86-2.85,3.37-5.28,5.56-1.88,1.69-3.63,3.52-5.45,5.28s-3.7,3.55-5.62,5.39L244,102.61a5.41,5.41,0,0,1-1,.23c-3.22,0-6.44,0-9.66,0a1.85,1.85,0,0,1-1.63-.81q-5.46-7-11-14c-.31-.39-.63-.76-.95-1.14a2.15,2.15,0,0,0-1.28,2.17c0,4,0,8,0,12v1.44c-1.21.44-7.77.46-9.08.07V36.33h9c.18,3.34.06,6.63.08,9.93s0,6.63,0,9.94v9.94C218.52,69.45,218.52,72.76,218.52,76.36Z" transform="translate(0 -1.48)"/><path d="M282.17,102.75h-8.93c-.61-1.05,0-2.22-.45-3.39-.31.21-.6.37-.86.58a16.82,16.82,0,0,1-21.47.28,19.36,19.36,0,0,1-7.16-13.07,23.16,23.16,0,0,1,1.16-11.94c2.45-6.15,6.71-10.38,13.39-11.69a15.84,15.84,0,0,1,14.06,3.92l1,.9.09-4c3.1-.17,6-.06,9.09-.08a11.65,11.65,0,0,1,.18,1.39q0,17.94,0,35.88C282.27,101.84,282.21,102.2,282.17,102.75ZM273.5,83.83a12.76,12.76,0,0,0-2.57-8.58,10.36,10.36,0,0,0-13.55-2.19,10.75,10.75,0,0,0-4,5,15.27,15.27,0,0,0-.22,10.52,10.67,10.67,0,0,0,4,5.46c3.62,2.65,10.69,2.48,14.12-2.56A12.48,12.48,0,0,0,273.5,83.83Z" transform="translate(0 -1.48)"/><path d="M174.57,64.21v38.31c-1.07.41-7.52.47-9.07.07V99.06c-.77.59-1.34,1-1.92,1.48a15.82,15.82,0,0,1-9.45,3.38,17,17,0,0,1-14.36-6.87,21.11,21.11,0,0,1-4.22-11.47A22.92,22.92,0,0,1,137,74.91c2.24-5.48,6-9.46,11.85-11.07a15.77,15.77,0,0,1,15,3.19l1.57,1.29V64.25C168.53,64.15,171.49,64.2,174.57,64.21Zm-8.41,19.4a38.14,38.14,0,0,0-.8-4.44A10.32,10.32,0,0,0,145.44,79a15.28,15.28,0,0,0-.36,7.62c.88,4.83,4.65,9.45,10.87,9a9.76,9.76,0,0,0,8.25-4.94A14.88,14.88,0,0,0,166.16,83.6Z" transform="translate(0 -1.48)"/><path d="M202.92,36.59v9.23c-.6-.26-1-.43-1.47-.65A12,12,0,0,0,197.81,44a3.27,3.27,0,0,0-4.09,2.86A20,20,0,0,0,193.4,50c0,4.32,0,8.65,0,13,0,.36,0,.71.09,1.23h9.17c.45,1.18.49,7.17.08,8.6h-9.31c0,3.44,0,6.73,0,10s0,6.53,0,9.8v9.86c-1,.44-7.17.56-9.13.19-.14-3.25,0-6.55-.06-9.83s0-6.62,0-9.94,0-6.6,0-10l-2.92-.14a29.67,29.67,0,0,1,0-8.51h2.84c0-.6.06-1.08.06-1.57,0-5,0-10,.05-15a23.58,23.58,0,0,1,.68-4.61,9,9,0,0,1,4.61-6.08C193.91,34.51,198.37,34.63,202.92,36.59Z" transform="translate(0 -1.48)"/><path d="M293.21,89.3a6.76,6.76,0,1,1-6.78,6.83A6.64,6.64,0,0,1,293.21,89.3Zm.05,1.41A5.19,5.19,0,0,0,287.84,96a5.34,5.34,0,0,0,5.26,5.42,5.4,5.4,0,0,0,5.51-5.32A5.23,5.23,0,0,0,293.27,90.71Z" transform="translate(0 -1.48)"/><path d="M165.73,48.11h-1.68v-5H159.7l-.11,5h-1.82V37h1.79c0,.73.07,1.41.08,2.08s0,1.27,0,2.06c1.47.1,2.83,0,4.36,0V37h1.71C166.09,38.14,166.11,46.76,165.73,48.11Z" transform="translate(0 -1.48)"/><path d="M174.59,48.13h-6.1a66.78,66.78,0,0,1-.11-11.05A27.25,27.25,0,0,1,174.5,37v1.74h-4.18V41l4,.15v1.81h-3.8a6.08,6.08,0,0,0-.06,3.37h4.05Z" transform="translate(0 -1.48)"/><path d="M123.43,36.45l5.22,11.65h-2.06l-1.19-2.51H121c-.22.41-.46.84-.68,1.29-.71,1.48-.72,1.49-2.57,1.13,1.74-3.9,3.55-7.72,5.35-11.54Zm-.23,4.2a9.93,9.93,0,0,0-1.25,3h2.61c-.35-.83-.64-1.54-.95-2.25A8.26,8.26,0,0,0,123.2,40.65Z" transform="translate(0 -1.48)"/><path d="M137.76,48.12h-2c.77-2.15,1.77-4,2.66-6s1.77-3.81,2.8-6c1.92,4,3.61,7.86,5.38,11.91l-1.94.2-1.28-2.67H139Zm4.87-4.48-1.38-3.11-1.44,3.11Z" transform="translate(0 -1.48)"/><path d="M129.88,37.08a8.9,8.9,0,0,1,4.34.14,3.32,3.32,0,0,1-.11,6.28c-.66.19-1.35.26-2.21.41l-.1,4.19h-1.71a12.14,12.14,0,0,1-.2-3.65c0-1.19,0-2.39,0-3.59Zm2,1.83v2.86c.89.11,1.71.2,2.3-.56a1.35,1.35,0,0,0,.12-1.55C133.82,38.75,133,38.73,131.92,38.91Z" transform="translate(0 -1.48)"/><path d="M155.49,45.35v2c-2.21,1.72-5.62,1-7.26-.8a5.77,5.77,0,0,1-.31-7.56,5.64,5.64,0,0,1,7.58-1.37v1.88c-.59.09-.92-.37-1.35-.56a3.81,3.81,0,0,0-5.23,2.08,3.92,3.92,0,0,0,2.21,5.22,3.63,3.63,0,0,0,3.06-.18C154.58,45.88,155,45.65,155.49,45.35Z" transform="translate(0 -1.48)"/><path d="M292.26,97.35v2.38H291.1c0-2.44,0-4.84,0-7.36a17.72,17.72,0,0,1,2.41,0,2,2,0,0,1,1.79,1.5,2.12,2.12,0,0,1-1,2.48c-.15.1-.31.19-.51.31L296,99.6c-.83.36-1.37.34-1.84-.29s-1.07-1.36-1.6-2Zm.13-2c.6.07,1.17.22,1.51-.34a1.17,1.17,0,0,0,0-1c-.34-.62-.93-.56-1.55-.4Z" transform="translate(0 -1.48)"/></svg>